<svg width="300" height="300" viewBox="0 0 300 300" fill="none" xmlns="http://www.w3.org/2000/svg">
<path d="M160.933 30.2667C158.667 32.4 160.933 37.3333 174.4 60.9333C182.4 74.6667 190.4 88.6667 192.267 92C194.133 95.3333 203.333 111.467 212.933 128C236.667 169.2 236.533 168.8 235.6 171.2C234.933 172.933 232.133 173.333 219.333 173.333H204L200.8 168.267C199.067 165.6 190.933 151.6 182.667 137.333C174.267 123.067 159.333 97.2 149.333 80C139.333 62.8 129.333 45.4667 127.2 41.7333C123.467 34.9333 120.933 32.6667 118.667 34C117.6 34.6667 107.2 52.2667 78.6667 102C61.4667 131.867 47.6 156 34.4 178.4C30.9333 184.4 28 190.267 28 191.333C28 192.4 29.3333 193.6 30.9333 194C32.6667 194.4 61.8667 194.533 96 194.4C167.2 194 162.533 194.933 154.267 181.333L149.867 174L107.733 173.6C70.4 173.333 65.4667 173.067 64.8 171.2C64.2667 169.733 67.8667 162.133 74.5333 150.8C80.2667 140.8 91.7333 120.933 100 106.667C116 79.0667 118.667 75.2 121.6 76.4C122.667 76.6667 133.333 94 145.333 114.8C176.933 169.733 182 178.533 187.2 186.933L191.867 194.667H231.2C267.333 194.667 270.667 194.533 271.867 192.267C272.8 190.533 270.933 186.4 263.733 174C258.667 165.2 252.933 155.333 251.067 152C249.2 148.8 243.333 138.533 238 129.333C213.733 87.6 190.8 48 186.8 40.9333C180.533 29.8667 179.733 29.3333 170.133 29.3333C165.6 29.3333 161.333 29.7333 160.933 30.2667Z" fill="#A7A8A9"/>
<path d="M62.8 222.933C62.1333 224.667 58.2667 233.067 54.2667 241.6L46.8 257.333H52C55.2 257.333 57.3333 256.667 57.8667 255.333C58.9333 252.533 74 252.533 75.2 255.333C75.8667 257.2 85.3333 258.4 85.3333 256.667C85.3333 256.267 81.6 247.867 77.2 238C70.8 224.133 68.4 220 66.4 220C65.0667 220 63.4667 221.333 62.8 222.933ZM68.4 238.267C68.6667 239.6 69.4667 241.733 70 242.933C70.8 244.933 70.2667 245.333 66.8 245.333C62.2667 245.333 61.8667 244.533 64.2667 239.333C66 235.467 67.4667 235.067 68.4 238.267Z" fill="#A7A8A9"/>
<path d="M110.667 238.667V257.333H122.667H134.667V253.333C134.667 249.333 134.533 249.333 127.333 249.333H120V234.667V220H115.333H110.667V238.667Z" fill="#A7A8A9"/>
<path d="M168.933 236.667C158.533 259.333 158.933 257.333 164.533 257.333C167.6 257.333 169.733 256.667 170.133 255.333C170.8 253.867 173.067 253.333 179.467 253.333C186.133 253.333 188 253.733 188 255.333C188 256.8 189.467 257.333 193.333 257.333C198.133 257.333 198.667 257.067 197.6 254.933C196.933 253.733 195.067 250 193.6 246.667C182.4 221.733 181.467 220 179.067 220C177.333 220 174.667 224.4 168.933 236.667ZM181.733 240.667L184 245.333H179.2C175.067 245.333 174.533 244.933 175.333 242.933C175.867 241.733 176.667 239.6 176.933 238.267C178 234.8 179.2 235.467 181.733 240.667Z" fill="#A7A8A9"/>
<path d="M224 224C224 227.733 224.4 228 228.667 228H233.333V242.667V257.333H238H242.667V242.667V228H247.333C251.6 228 252 227.733 252 224V220H238H224V224Z" fill="#A7A8A9"/>
<path d="M173.333 274.933C173.333 278 173.733 278.8 174.533 277.467C175.6 275.867 175.067 270.667 173.867 270.667C173.6 270.667 173.333 272.667 173.333 274.933Z" fill="#A7A8A9"/>
<path d="M217.733 277.333C217.733 281.333 218 283.067 218.267 281.067C218.533 278.933 218.533 275.733 218.267 273.6C218 271.6 217.733 273.333 217.733 277.333Z" fill="#A7A8A9"/>
<path d="M228 272C228 272.667 228.667 273.333 229.333 273.333C230.133 273.333 230.667 272.667 230.667 272C230.667 271.2 230.133 270.667 229.333 270.667C228.667 270.667 228 271.2 228 272Z" fill="#A7A8A9"/>
<path d="M179.867 274.933C180.8 276.267 181.333 278.8 181.067 280.667C180.667 282.4 180.933 283.6 181.467 283.2C183.467 282 182.8 276.4 180.4 274.533C178.267 272.8 178.133 272.933 179.867 274.933Z" fill="#A7A8A9"/>
<path d="M228.133 276.8C228.133 278.267 228.533 278.667 228.933 277.6C229.333 276.667 229.2 275.467 228.8 275.067C228.4 274.533 228 275.333 228.133 276.8Z" fill="#A7A8A9"/>
<path d="M240.4 279.333C240.4 282.267 240.667 283.333 240.933 281.6C241.2 280 241.2 277.6 240.933 276.267C240.533 275.067 240.267 276.4 240.4 279.333Z" fill="#A7A8A9"/>
<path d="M250.4 279.6C251.333 280 252.533 279.867 252.933 279.467C253.467 279.067 252.667 278.667 251.2 278.8C249.733 278.8 249.333 279.2 250.4 279.6Z" fill="#A7A8A9"/>
<path d="M173.333 281.2C173.333 282 173.867 282.933 174.667 283.333C175.467 283.733 175.6 283.2 175.2 282.133C174.267 279.733 173.333 279.333 173.333 281.2Z" fill="#A7A8A9"/>
<path d="M201.333 281.333C201.333 282 202 282.667 202.667 282.667C203.467 282.667 204 282 204 281.333C204 280.533 203.467 280 202.667 280C202 280 201.333 280.533 201.333 281.333Z" fill="#A7A8A9"/>
</svg>
