<svg width="205" height="75" viewBox="0 0 205 75" fill="none" xmlns="http://www.w3.org/2000/svg">
<path d="M188.099 1H16.5226C7.94969 1 1 8.75916 1 18.3306V56.4579C1 66.0293 7.94969 73.7884 16.5226 73.7884H188.099C196.672 73.7884 203.621 66.0293 203.621 56.4579V18.3306C203.621 8.75916 196.672 1 188.099 1Z" stroke="white" stroke-width="2"/>
<path fill-rule="evenodd" clip-rule="evenodd" d="M52.1922 35.4507C55.3165 35.4507 57.3143 38.8257 57.3143 38.8257C57.3143 38.8257 54.2667 40.6722 54.2667 44.6822C54.2667 49.4417 58.0952 50.8262 58.0952 50.8262C58.0952 50.8262 55.0733 58.8314 51.6802 58.8314C49.7722 58.8314 49.6446 57.6059 47.109 57.6059C44.907 57.6059 44.1644 58.8314 42.487 58.8314C39.2854 58.8314 35.1497 51.0282 35.1497 44.6822C35.1497 38.0904 39.337 35.4507 41.9618 35.4507C44.2668 35.4507 45.2268 36.9652 47.0832 36.9652C48.6457 36.9652 49.8752 35.4507 52.1922 35.4507ZM51.655 28.7289C52.1155 31.9598 49.4907 35.9558 46.3539 35.8258C45.8927 31.7147 49.2734 28.9458 51.655 28.7289Z" fill="white"/>
<path d="M60.8881 23.8047C61.9892 23.8047 62.9502 23.5109 63.7712 22.9232C64.5922 22.3355 65.191 21.5025 65.5677 20.4241H63.9885C63.7084 21.1035 63.3052 21.6238 62.7788 21.985C62.2524 22.3463 61.6222 22.5269 60.8881 22.5269C60.1831 22.5269 59.5504 22.3436 58.9902 21.9769C58.43 21.6103 57.9906 21.09 57.6719 20.416C57.3531 19.7421 57.1938 18.9576 57.1938 18.0625C57.1938 17.1567 57.3531 16.3668 57.6719 15.6929C57.9906 15.0189 58.43 14.4986 58.9902 14.132C59.5504 13.7653 60.1831 13.582 60.8881 13.582C61.6222 13.582 62.2524 13.7653 62.7788 14.132C63.3052 14.4986 63.7084 15.0216 63.9885 15.701H65.5677C65.191 14.6118 64.5922 13.7707 63.7712 13.1776C62.9502 12.5845 61.9892 12.288 60.8881 12.288C59.9513 12.288 59.0989 12.536 58.3311 13.032C57.5632 13.5281 56.9571 14.2155 56.5128 15.0944C56.0686 15.9732 55.8464 16.9626 55.8464 18.0625C55.8464 19.1624 56.0686 20.1491 56.5128 21.0226C56.9571 21.8961 57.5632 22.5781 58.3311 23.0688C59.0989 23.5594 59.9513 23.8047 60.8881 23.8047ZM70.9861 23.8533C71.7394 23.8533 72.4252 23.6645 73.0433 23.2871C73.6615 22.9097 74.1516 22.3732 74.5138 21.6777C74.876 20.9822 75.0571 20.1761 75.0571 19.2595C75.0571 18.3429 74.8809 17.5395 74.5283 16.8494C74.1758 16.1592 73.6953 15.6282 73.0868 15.2561C72.4783 14.8841 71.7974 14.6981 71.044 14.6981C70.2907 14.6981 69.6097 14.8841 69.0013 15.2561C68.3928 15.6282 67.9123 16.1619 67.5597 16.8575C67.2072 17.553 67.0309 18.3537 67.0309 19.2595C67.0309 20.1761 67.2024 20.9822 67.5452 21.6777C67.8881 22.3732 68.3614 22.9097 68.965 23.2871C69.5687 23.6645 70.2424 23.8533 70.9861 23.8533ZM70.9861 22.5592C70.5128 22.5592 70.0782 22.4379 69.6822 22.1953C69.2862 21.9527 68.9699 21.5833 68.7332 21.0873C68.4966 20.5913 68.3783 19.982 68.3783 19.2595C68.3783 18.5478 68.499 17.9439 68.7405 17.4479C68.9819 16.9518 69.3031 16.5825 69.7039 16.3399C70.1047 16.0972 70.5466 15.9759 71.0295 15.9759C71.5028 15.9759 71.9423 16.0972 72.3479 16.3399C72.7536 16.5825 73.082 16.9518 73.3331 17.4479C73.5842 17.9439 73.7098 18.5478 73.7098 19.2595C73.7098 19.9712 73.5818 20.5751 73.3258 21.0711C73.0699 21.5672 72.7343 21.9392 72.3189 22.1872C71.9036 22.4352 71.4593 22.5592 70.9861 22.5592ZM78.114 23.7077V18.8228C78.114 17.8954 78.3169 17.1864 78.7225 16.6957C79.1282 16.2051 79.6739 15.9598 80.3596 15.9598C81.0261 15.9598 81.5549 16.1943 81.946 16.6634C82.3372 17.1325 82.5328 17.8091 82.5328 18.6934V23.7077H83.8367V18.8228C83.8367 17.8954 84.0395 17.1864 84.4452 16.6957C84.8508 16.2051 85.3965 15.9598 86.0823 15.9598C86.7487 15.9598 87.2775 16.1943 87.6687 16.6634C88.0599 17.1325 88.2554 17.8091 88.2554 18.6934V23.7077H89.5593V18.4831C89.5593 17.6635 89.4193 16.968 89.1392 16.3965C88.8591 15.825 88.4776 15.3963 87.9947 15.1106C87.5117 14.8248 86.9612 14.6819 86.3431 14.6819C85.7153 14.6819 85.1454 14.8544 84.6335 15.1995C84.1216 15.5446 83.7546 16.0298 83.5324 16.6553C83.2813 16.0083 82.8998 15.5176 82.3879 15.1833C81.876 14.8491 81.2869 14.6819 80.6204 14.6819C80.0892 14.6819 79.6039 14.8059 79.1644 15.0539C78.7249 15.302 78.3748 15.6578 78.114 16.1215V14.8437H76.7957V23.7077H78.114ZM92.3989 13.4041C92.6404 13.4041 92.8456 13.307 93.0147 13.1129C93.1837 12.9188 93.2682 12.6816 93.2682 12.4012C93.2682 12.1208 93.1837 11.8836 93.0147 11.6895C92.8456 11.4954 92.6404 11.3983 92.3989 11.3983C92.1478 11.3983 91.9353 11.4954 91.7615 11.6895C91.5876 11.8836 91.5007 12.1208 91.5007 12.4012C91.5007 12.6816 91.5876 12.9188 91.7615 13.1129C91.9353 13.307 92.1478 13.4041 92.3989 13.4041ZM93.0364 23.7077V14.8437H91.718V23.7077H93.0364ZM96.6004 23.7077V18.8066C96.6004 17.8792 96.8056 17.1729 97.2161 16.6876C97.6266 16.2024 98.1795 15.9598 98.875 15.9598C99.5607 15.9598 100.102 16.1943 100.498 16.6634C100.894 17.1325 101.092 17.8091 101.092 18.6934V23.7077H102.395V18.4831C102.395 17.2538 102.096 16.3129 101.497 15.6605C100.898 15.0081 100.116 14.6819 99.1502 14.6819C98.6093 14.6819 98.1144 14.8059 97.6652 15.0539C97.2161 15.302 96.8612 15.6524 96.6004 16.1053V14.8437H95.282V23.7077H96.6004ZM108.321 28.075C109.084 28.075 109.753 27.8971 110.328 27.5412C110.902 27.1853 111.344 26.692 111.653 26.0612C111.962 25.4303 112.117 24.7105 112.117 23.9018V14.8437H110.784V16.4612C110.533 15.9544 110.149 15.5338 109.632 15.1995C109.115 14.8652 108.514 14.6981 107.828 14.6981C107.123 14.6981 106.483 14.8868 105.909 15.2642C105.334 15.6416 104.883 16.1727 104.554 16.8575C104.226 17.5422 104.062 18.3375 104.062 19.2433C104.062 20.1384 104.226 20.9363 104.554 21.6373C104.883 22.3382 105.334 22.8827 105.909 23.2709C106.483 23.6592 107.123 23.8533 107.828 23.8533C108.514 23.8533 109.113 23.6807 109.625 23.3356C110.137 22.9906 110.523 22.5592 110.784 22.0416V23.9018C110.784 24.8184 110.554 25.5301 110.096 26.0369C109.637 26.5437 109.045 26.7971 108.321 26.7971C107.683 26.7971 107.138 26.6327 106.684 26.3038C106.23 25.9749 105.93 25.5409 105.786 25.0017H104.482C104.607 25.9506 105.018 26.7001 105.713 27.25C106.409 27.8 107.278 28.075 108.321 28.075ZM108.089 22.5592C107.597 22.5592 107.147 22.4271 106.742 22.1629C106.336 21.8988 106.013 21.5159 105.771 21.0145C105.53 20.5131 105.409 19.9227 105.409 19.2433C105.409 18.5747 105.53 17.9924 105.771 17.4964C106.013 17.0004 106.336 16.6229 106.742 16.3641C107.147 16.1053 107.597 15.9759 108.089 15.9759C108.582 15.9759 109.033 16.108 109.444 16.3722C109.854 16.6364 110.18 17.0165 110.422 17.5126C110.663 18.0086 110.784 18.5909 110.784 19.2595C110.784 19.9281 110.663 20.5131 110.422 21.0145C110.18 21.5159 109.854 21.8988 109.444 22.1629C109.033 22.4271 108.582 22.5592 108.089 22.5592ZM121.418 23.8209C122.113 23.8209 122.717 23.6699 123.229 23.368C123.741 23.0661 124.127 22.6725 124.388 22.1872C124.649 21.702 124.779 21.1843 124.779 20.6344C124.779 19.9227 124.634 19.3592 124.344 18.9441C124.055 18.5289 123.707 18.2216 123.301 18.0221C122.896 17.8226 122.36 17.6204 121.693 17.4155C121.143 17.243 120.715 17.0893 120.411 16.9545C120.107 16.8197 119.851 16.6229 119.643 16.3641C119.435 16.1053 119.332 15.771 119.332 15.3613C119.332 14.7897 119.505 14.3449 119.853 14.0268C120.201 13.7087 120.65 13.5496 121.201 13.5496C121.79 13.5496 122.263 13.7141 122.62 14.043C122.978 14.3719 123.181 14.752 123.229 15.1833H124.678C124.6 14.3099 124.26 13.609 123.656 13.0806C123.053 12.5522 122.277 12.288 121.331 12.288C120.674 12.288 120.092 12.4174 119.585 12.6762C119.078 12.935 118.685 13.3016 118.404 13.7761C118.124 14.2506 117.984 14.7951 117.984 15.4098C117.984 16.1107 118.127 16.6688 118.412 17.0839C118.697 17.4991 119.039 17.8037 119.44 17.9978C119.841 18.1919 120.375 18.386 121.041 18.5801C121.582 18.7419 122.012 18.8929 122.331 19.033C122.649 19.1732 122.915 19.3781 123.127 19.6477C123.34 19.9173 123.446 20.2678 123.446 20.6991C123.446 21.249 123.265 21.6993 122.903 22.0497C122.541 22.4002 122.046 22.5754 121.418 22.5754C120.761 22.5754 120.261 22.3948 119.918 22.0335C119.576 21.6723 119.38 21.2275 119.332 20.6991H117.926C117.936 21.3137 118.091 21.8556 118.39 22.3247C118.689 22.7938 119.102 23.1604 119.629 23.4246C120.155 23.6888 120.751 23.8209 121.418 23.8209ZM130.183 23.8533C130.936 23.8533 131.622 23.6645 132.24 23.2871C132.858 22.9097 133.348 22.3732 133.711 21.6777C134.073 20.9822 134.254 20.1761 134.254 19.2595C134.254 18.3429 134.078 17.5395 133.725 16.8494C133.373 16.1592 132.892 15.6282 132.284 15.2561C131.675 14.8841 130.994 14.6981 130.241 14.6981C129.488 14.6981 128.807 14.8841 128.198 15.2561C127.59 15.6282 127.109 16.1619 126.757 16.8575C126.404 17.553 126.228 18.3537 126.228 19.2595C126.228 20.1761 126.399 20.9822 126.742 21.6777C127.085 22.3732 127.558 22.9097 128.162 23.2871C128.766 23.6645 129.439 23.8533 130.183 23.8533ZM130.183 22.5592C129.71 22.5592 129.275 22.4379 128.879 22.1953C128.483 21.9527 128.167 21.5833 127.93 21.0873C127.693 20.5913 127.575 19.982 127.575 19.2595C127.575 18.5478 127.696 17.9439 127.937 17.4479C128.179 16.9518 128.5 16.5825 128.901 16.3399C129.302 16.0972 129.743 15.9759 130.226 15.9759C130.7 15.9759 131.139 16.0972 131.545 16.3399C131.95 16.5825 132.279 16.9518 132.53 17.4479C132.781 17.9439 132.907 18.5478 132.907 19.2595C132.907 19.9712 132.779 20.5751 132.523 21.0711C132.267 21.5672 131.931 21.9392 131.516 22.1872C131.1 22.4352 130.656 22.5592 130.183 22.5592ZM139.455 23.8533C140.208 23.8533 140.894 23.6645 141.512 23.2871C142.13 22.9097 142.621 22.3732 142.983 21.6777C143.345 20.9822 143.526 20.1761 143.526 19.2595C143.526 18.3429 143.35 17.5395 142.997 16.8494C142.645 16.1592 142.164 15.6282 141.556 15.2561C140.947 14.8841 140.266 14.6981 139.513 14.6981C138.76 14.6981 138.079 14.8841 137.47 15.2561C136.862 15.6282 136.381 16.1619 136.029 16.8575C135.676 17.553 135.5 18.3537 135.5 19.2595C135.5 20.1761 135.671 20.9822 136.014 21.6777C136.357 22.3732 136.83 22.9097 137.434 23.2871C138.038 23.6645 138.711 23.8533 139.455 23.8533ZM139.455 22.5592C138.982 22.5592 138.547 22.4379 138.151 22.1953C137.755 21.9527 137.439 21.5833 137.202 21.0873C136.966 20.5913 136.847 19.982 136.847 19.2595C136.847 18.5478 136.968 17.9439 137.209 17.4479C137.451 16.9518 137.772 16.5825 138.173 16.3399C138.574 16.0972 139.016 15.9759 139.499 15.9759C139.972 15.9759 140.411 16.0972 140.817 16.3399C141.223 16.5825 141.551 16.9518 141.802 17.4479C142.053 17.9439 142.179 18.5478 142.179 19.2595C142.179 19.9712 142.051 20.5751 141.795 21.0711C141.539 21.5672 141.203 21.9392 140.788 22.1872C140.373 22.4352 139.928 22.5592 139.455 22.5592ZM146.583 23.7077V18.8066C146.583 17.8792 146.788 17.1729 147.199 16.6876C147.609 16.2024 148.162 15.9598 148.858 15.9598C149.543 15.9598 150.084 16.1943 150.48 16.6634C150.876 17.1325 151.074 17.8091 151.074 18.6934V23.7077H152.378V18.4831C152.378 17.2538 152.079 16.3129 151.48 15.6605C150.881 15.0081 150.099 14.6819 149.133 14.6819C148.592 14.6819 148.097 14.8059 147.648 15.0539C147.199 15.302 146.844 15.6524 146.583 16.1053V14.8437H145.265V23.7077H146.583Z" fill="white"/>
<path d="M70.1205 53.2117L71.2032 49.8658H77.0808L78.1635 53.2117H80.0196L75.1667 38.2525H73.1366L68.2644 53.2117H70.1205ZM76.5781 48.2685H71.7059L74.142 40.6702L76.5781 48.2685ZM83.9057 58.8241V51.0315C84.2666 51.7078 84.7919 52.2727 85.4815 52.726C86.171 53.1793 86.967 53.4059 87.8692 53.4059C88.8101 53.4059 89.6641 53.1469 90.431 52.6288C91.1979 52.1108 91.8005 51.3841 92.2387 50.4487C92.677 49.5133 92.8961 48.4483 92.8961 47.2539C92.8961 46.0451 92.677 44.9838 92.2387 44.07C91.8005 43.1562 91.1979 42.4474 90.431 41.9437C89.6641 41.4401 88.8101 41.1882 87.8692 41.1882C86.9541 41.1882 86.1517 41.4149 85.4621 41.8682C84.7725 42.3215 84.2537 42.8863 83.9057 43.5627V41.3825H82.1463V58.8241H83.9057ZM87.5019 51.6791C86.8574 51.6791 86.2613 51.5028 85.7135 51.1502C85.1657 50.7976 84.7274 50.2868 84.3987 49.6176C84.0701 48.9484 83.9057 48.1677 83.9057 47.2755C83.9057 46.3977 84.0701 45.6242 84.3987 44.955C84.7274 44.2858 85.1657 43.775 85.7135 43.4224C86.2613 43.0698 86.8574 42.8935 87.5019 42.8935C88.1592 42.8935 88.7618 43.0662 89.3096 43.4116C89.8574 43.757 90.2924 44.2606 90.6147 44.9226C90.9369 45.5846 91.098 46.3617 91.098 47.2539C91.098 48.1605 90.9369 48.9484 90.6147 49.6176C90.2924 50.2868 89.8574 50.7976 89.3096 51.1502C88.7618 51.5028 88.1592 51.6791 87.5019 51.6791ZM96.9756 58.8241V51.0315C97.3365 51.7078 97.8617 52.2727 98.5513 52.726C99.2409 53.1793 100.037 53.4059 100.939 53.4059C101.88 53.4059 102.734 53.1469 103.501 52.6288C104.268 52.1108 104.87 51.3841 105.309 50.4487C105.747 49.5133 105.966 48.4483 105.966 47.2539C105.966 46.0451 105.747 44.9838 105.309 44.07C104.87 43.1562 104.268 42.4474 103.501 41.9437C102.734 41.4401 101.88 41.1882 100.939 41.1882C100.024 41.1882 99.2216 41.4149 98.532 41.8682C97.8424 42.3215 97.3236 42.8863 96.9756 43.5627V41.3825H95.2162V58.8241H96.9756ZM100.572 51.6791C99.9273 51.6791 99.3311 51.5028 98.7833 51.1502C98.2355 50.7976 97.7973 50.2868 97.4686 49.6176C97.1399 48.9484 96.9756 48.1677 96.9756 47.2755C96.9756 46.3977 97.1399 45.6242 97.4686 44.955C97.7973 44.2858 98.2355 43.775 98.7833 43.4224C99.3311 43.0698 99.9273 42.8935 100.572 42.8935C101.229 42.8935 101.832 43.0662 102.379 43.4116C102.927 43.757 103.362 44.2606 103.685 44.9226C104.007 45.5846 104.168 46.3617 104.168 47.2539C104.168 48.1605 104.007 48.9484 103.685 49.6176C103.362 50.2868 102.927 50.7976 102.379 51.1502C101.832 51.5028 101.229 51.6791 100.572 51.6791ZM117.721 53.3628C118.649 53.3628 119.455 53.1613 120.138 52.7584C120.821 52.3554 121.337 51.8302 121.685 51.1826C122.033 50.535 122.207 49.8442 122.207 49.1103C122.207 48.1605 122.013 47.4086 121.627 46.8546C121.24 46.3005 120.776 45.8904 120.235 45.6242C119.693 45.3579 118.978 45.0881 118.088 44.8147C117.354 44.5844 116.783 44.3794 116.377 44.1995C115.971 44.0196 115.63 43.757 115.353 43.4116C115.076 43.0662 114.937 42.6201 114.937 42.0733C114.937 41.3105 115.169 40.7169 115.633 40.2924C116.097 39.8679 116.696 39.6556 117.431 39.6556C118.217 39.6556 118.849 39.8751 119.326 40.314C119.803 40.7529 120.073 41.2602 120.138 41.8358H122.071C121.968 40.6702 121.514 39.7348 120.708 39.0296C119.903 38.3245 118.868 37.9719 117.605 37.9719C116.729 37.9719 115.952 38.1446 115.275 38.49C114.599 38.8353 114.073 39.3246 113.7 39.9578C113.326 40.591 113.139 41.3177 113.139 42.138C113.139 43.0734 113.329 43.8181 113.709 44.3722C114.089 44.9262 114.547 45.3328 115.082 45.5918C115.617 45.8508 116.329 46.1099 117.218 46.3689C117.94 46.5847 118.514 46.7862 118.939 46.9733C119.364 47.1604 119.719 47.4338 120.003 47.7936C120.286 48.1533 120.428 48.621 120.428 49.1967C120.428 49.9306 120.186 50.5314 119.703 50.9991C119.219 51.4668 118.559 51.7006 117.721 51.7006C116.845 51.7006 116.178 51.4596 115.72 50.9775C115.262 50.4954 115.001 49.9018 114.937 49.1967H113.062C113.074 50.0169 113.281 50.7401 113.68 51.3661C114.08 51.9921 114.631 52.4813 115.333 52.8339C116.036 53.1865 116.832 53.3628 117.721 53.3628ZM129.708 53.2117V51.5495H128.413C127.871 51.5495 127.491 51.4308 127.272 51.1934C127.053 50.9559 126.943 50.5494 126.943 49.9738V43.0015H129.708V41.3825H126.943V38.4036H125.184V41.3825H123.811V43.0015H125.184V49.9738C125.184 51.125 125.429 51.9525 125.919 52.4562C126.409 52.9598 127.143 53.2117 128.123 53.2117H129.708ZM136.456 53.4059C137.461 53.4059 138.376 53.1541 139.201 52.6504C140.026 52.1468 140.68 51.4308 141.164 50.5026C141.647 49.5744 141.889 48.4987 141.889 47.2755C141.889 46.0523 141.653 44.9802 141.183 44.0592C140.713 43.1382 140.071 42.4294 139.259 41.9329C138.447 41.4365 137.539 41.1882 136.533 41.1882C135.528 41.1882 134.619 41.4365 133.807 41.9329C132.995 42.4294 132.354 43.1418 131.883 44.07C131.413 44.9982 131.178 46.0667 131.178 47.2755C131.178 48.4987 131.406 49.5744 131.864 50.5026C132.322 51.4308 132.953 52.1468 133.759 52.6504C134.564 53.1541 135.463 53.4059 136.456 53.4059ZM136.456 51.6791C135.824 51.6791 135.244 51.5172 134.716 51.1934C134.187 50.8696 133.765 50.3767 133.449 49.7147C133.134 49.0528 132.976 48.2397 132.976 47.2755C132.976 46.3257 133.137 45.5198 133.459 44.8579C133.781 44.1959 134.21 43.703 134.745 43.3792C135.28 43.0554 135.869 42.8935 136.514 42.8935C137.145 42.8935 137.732 43.0554 138.273 43.3792C138.815 43.703 139.253 44.1959 139.588 44.8579C139.923 45.5198 140.091 46.3257 140.091 47.2755C140.091 48.2253 139.92 49.0312 139.578 49.6931C139.237 50.3551 138.789 50.8516 138.235 51.1826C137.68 51.5136 137.087 51.6791 136.456 51.6791ZM145.968 53.2117V46.779C145.968 44.3902 146.954 43.1957 148.926 43.1957H149.39V41.1666C148.565 41.1666 147.866 41.3537 147.293 41.7279C146.719 42.102 146.278 42.6273 145.968 43.3037V41.3825H144.209V53.2117H145.968ZM156.003 53.4059C157.266 53.4059 158.323 53.0498 159.173 52.3374C160.024 51.6251 160.591 50.7005 160.875 49.5636H158.98C158.774 50.2256 158.416 50.7545 157.907 51.1502C157.398 51.5459 156.763 51.7438 156.003 51.7438C155.075 51.7438 154.285 51.4164 153.634 50.7617C152.983 50.1069 152.626 49.1967 152.561 48.031H161.029C161.068 47.6137 161.087 47.2179 161.087 46.8438C161.087 45.7645 160.878 44.7967 160.459 43.9405C160.04 43.0842 159.444 42.4114 158.671 41.9222C157.897 41.4329 157.008 41.1882 156.003 41.1882C154.971 41.1882 154.06 41.4365 153.267 41.9329C152.474 42.4294 151.859 43.1382 151.42 44.0592C150.982 44.9802 150.763 46.0523 150.763 47.2755C150.763 48.4987 150.989 49.5744 151.44 50.5026C151.891 51.4308 152.513 52.1468 153.306 52.6504C154.098 53.1541 154.997 53.4059 156.003 53.4059ZM159.27 46.4336H152.58C152.671 45.3112 153.028 44.4333 153.654 43.8001C154.279 43.167 155.036 42.8504 155.925 42.8504C156.544 42.8504 157.108 42.9907 157.617 43.2713C158.126 43.5519 158.529 43.962 158.825 44.5017C159.122 45.0413 159.27 45.6853 159.27 46.4336Z" fill="white"/>
</svg>
