<svg width="205" height="76" viewBox="0 0 205 76" fill="none" xmlns="http://www.w3.org/2000/svg">
<g clip-path="url(#clip0_5_575)">
<rect width="204.898" height="75.0992" rx="21" fill="black"/>
<path d="M188.133 1.15537H16.5574C7.98454 1.15537 1.03485 8.91454 1.03485 18.486V56.6132C1.03485 66.1846 7.98454 73.9438 16.5574 73.9438H188.133C196.706 73.9438 203.656 66.1846 203.656 56.6132V18.486C203.656 8.91454 196.706 1.15537 188.133 1.15537Z" stroke="white" stroke-width="2"/>
<path fill-rule="evenodd" clip-rule="evenodd" d="M52.227 35.6061C55.3513 35.6061 57.3492 38.9811 57.3492 38.9811C57.3492 38.9811 54.3015 40.8275 54.3015 44.8376C54.3015 49.5971 58.1301 50.9815 58.1301 50.9815C58.1301 50.9815 55.1082 58.9868 51.715 58.9868C49.807 58.9868 49.6795 57.7613 47.1439 57.7613C44.9419 57.7613 44.1993 58.9868 42.5219 58.9868C39.3203 58.9868 35.1845 51.1836 35.1845 44.8376C35.1845 38.2458 39.3718 35.6061 41.9966 35.6061C44.3017 35.6061 45.2616 37.1205 47.1181 37.1205C48.6806 37.1205 49.9101 35.6061 52.227 35.6061ZM51.6899 28.8843C52.1504 32.1152 49.5256 36.1112 46.3887 35.9812C45.9276 31.8701 49.3082 29.1012 51.6899 28.8843Z" fill="white"/>
<path d="M60.923 23.9601C62.0241 23.9601 62.9851 23.6663 63.806 23.0786C64.627 22.4909 65.2258 21.6578 65.6025 20.5795H64.0234C63.7433 21.2588 63.34 21.7791 62.8136 22.1404C62.2872 22.5016 61.657 22.6823 60.923 22.6823C60.2179 22.6823 59.5853 22.4989 59.0251 22.1323C58.4649 21.7657 58.0254 21.2454 57.7067 20.5714C57.388 19.8974 57.2286 19.1129 57.2286 18.2179C57.2286 17.3121 57.388 16.5222 57.7067 15.8482C58.0254 15.1743 58.4649 14.654 59.0251 14.2873C59.5853 13.9207 60.2179 13.7374 60.923 13.7374C61.657 13.7374 62.2872 13.9207 62.8136 14.2873C63.34 14.654 63.7433 15.177 64.0234 15.8563H65.6025C65.2258 14.7672 64.627 13.9261 63.806 13.333C62.9851 12.7399 62.0241 12.4434 60.923 12.4434C59.9861 12.4434 59.1338 12.6914 58.3659 13.1874C57.5981 13.6835 56.992 14.3709 56.5477 15.2498C56.1034 16.1286 55.8813 17.118 55.8813 18.2179C55.8813 19.3178 56.1034 20.3045 56.5477 21.178C56.992 22.0514 57.5981 22.7335 58.3659 23.2241C59.1338 23.7148 59.9861 23.9601 60.923 23.9601ZM71.0209 24.0086C71.7743 24.0086 72.46 23.8199 73.0782 23.4425C73.6963 23.0651 74.1865 22.5286 74.5487 21.8331C74.9109 21.1375 75.092 20.3315 75.092 19.4149C75.092 18.4983 74.9157 17.6949 74.5632 17.0048C74.2106 16.3146 73.7301 15.7835 73.1217 15.4115C72.5132 15.0395 71.8322 14.8535 71.0789 14.8535C70.3255 14.8535 69.6446 15.0395 69.0361 15.4115C68.4276 15.7835 67.9471 16.3173 67.5946 17.0129C67.242 17.7084 67.0658 18.5091 67.0658 19.4149C67.0658 20.3315 67.2372 21.1375 67.5801 21.8331C67.923 22.5286 68.3962 23.0651 68.9999 23.4425C69.6035 23.8199 70.2772 24.0086 71.0209 24.0086ZM71.0209 22.7146C70.5477 22.7146 70.113 22.5933 69.717 22.3507C69.321 22.108 69.0047 21.7387 68.7681 21.2427C68.5315 20.7466 68.4131 20.1374 68.4131 19.4149C68.4131 18.7032 68.5339 18.0993 68.7753 17.6032C69.0168 17.1072 69.3379 16.7379 69.7388 16.4952C70.1396 16.2526 70.5815 16.1313 71.0644 16.1313C71.5377 16.1313 71.9771 16.2526 72.3828 16.4952C72.7884 16.7379 73.1168 17.1072 73.3679 17.6032C73.6191 18.0993 73.7446 18.7032 73.7446 19.4149C73.7446 20.1266 73.6166 20.7305 73.3607 21.2265C73.1047 21.7225 72.7691 22.0946 72.3538 22.3426C71.9385 22.5906 71.4942 22.7146 71.0209 22.7146ZM78.1489 23.8631V18.9781C78.1489 18.0508 78.3517 17.3417 78.7574 16.8511C79.163 16.3605 79.7087 16.1151 80.3945 16.1151C81.0609 16.1151 81.5897 16.3497 81.9809 16.8187C82.3721 17.2878 82.5677 17.9645 82.5677 18.8487V23.8631H83.8715V18.9781C83.8715 18.0508 84.0744 17.3417 84.48 16.8511C84.8857 16.3605 85.4314 16.1151 86.1171 16.1151C86.7836 16.1151 87.3124 16.3497 87.7035 16.8187C88.0947 17.2878 88.2903 17.9645 88.2903 18.8487V23.8631H89.5942V18.6385C89.5942 17.8189 89.4541 17.1234 89.174 16.5519C88.894 15.9803 88.5124 15.5517 88.0295 15.2659C87.5466 14.9802 86.9961 14.8373 86.3779 14.8373C85.7501 14.8373 85.1803 15.0098 84.6684 15.3549C84.1565 15.7 83.7894 16.1852 83.5673 16.8107C83.3162 16.1637 82.9347 15.673 82.4228 15.3387C81.9109 15.0044 81.3217 14.8373 80.6553 14.8373C80.1241 14.8373 79.6387 14.9613 79.1992 15.2093C78.7598 15.4573 78.4097 15.8132 78.1489 16.2769V14.999H76.8305V23.8631H78.1489ZM92.4338 13.5594C92.6753 13.5594 92.8805 13.4624 93.0495 13.2683C93.2185 13.0742 93.3031 12.837 93.3031 12.5566C93.3031 12.2762 93.2185 12.039 93.0495 11.8449C92.8805 11.6508 92.6753 11.5537 92.4338 11.5537C92.1827 11.5537 91.9702 11.6508 91.7963 11.8449C91.6225 12.039 91.5356 12.2762 91.5356 12.5566C91.5356 12.837 91.6225 13.0742 91.7963 13.2683C91.9702 13.4624 92.1827 13.5594 92.4338 13.5594ZM93.0713 23.8631V14.999H91.7529V23.8631H93.0713ZM96.6352 23.8631V18.962C96.6352 18.0346 96.8405 17.3283 97.251 16.843C97.6614 16.3578 98.2144 16.1151 98.9098 16.1151C99.5956 16.1151 100.136 16.3497 100.532 16.8187C100.928 17.2878 101.126 17.9645 101.126 18.8487V23.8631H102.43V18.6385C102.43 17.4091 102.131 16.4683 101.532 15.8159C100.933 15.1635 100.151 14.8373 99.1851 14.8373C98.6442 14.8373 98.1492 14.9613 97.7001 15.2093C97.251 15.4573 96.896 15.8078 96.6352 16.2607V14.999H95.3168V23.8631H96.6352ZM108.356 28.2304C109.119 28.2304 109.788 28.0524 110.362 27.6966C110.937 27.3407 111.379 26.8474 111.688 26.2165C111.997 25.5857 112.152 24.8659 112.152 24.0572V14.999H110.819V16.6166C110.568 16.1097 110.184 15.6892 109.667 15.3549C109.15 15.0206 108.549 14.8535 107.863 14.8535C107.158 14.8535 106.518 15.0422 105.944 15.4196C105.369 15.797 104.917 16.3281 104.589 17.0129C104.261 17.6976 104.096 18.4929 104.096 19.3987C104.096 20.2937 104.261 21.0917 104.589 21.7926C104.917 22.4935 105.369 23.0381 105.944 23.4263C106.518 23.8145 107.158 24.0086 107.863 24.0086C108.549 24.0086 109.148 23.8361 109.66 23.491C110.172 23.146 110.558 22.7146 110.819 22.197V24.0572C110.819 24.9737 110.589 25.6855 110.131 26.1923C109.672 26.6991 109.08 26.9525 108.356 26.9525C107.718 26.9525 107.173 26.7881 106.719 26.4592C106.265 26.1303 105.965 25.6962 105.82 25.1571H104.517C104.642 26.106 105.053 26.8555 105.748 27.4054C106.443 27.9554 107.313 28.2304 108.356 28.2304ZM108.124 22.7146C107.631 22.7146 107.182 22.5825 106.777 22.3183C106.371 22.0541 106.047 21.6713 105.806 21.1699C105.565 20.6684 105.444 20.0781 105.444 19.3987C105.444 18.7301 105.565 18.1478 105.806 17.6518C106.047 17.1557 106.371 16.7783 106.777 16.5195C107.182 16.2607 107.631 16.1313 108.124 16.1313C108.617 16.1313 109.068 16.2634 109.479 16.5276C109.889 16.7918 110.215 17.1719 110.457 17.6679C110.698 18.164 110.819 18.7463 110.819 19.4149C110.819 20.0834 110.698 20.6684 110.457 21.1699C110.215 21.6713 109.889 22.0541 109.479 22.3183C109.068 22.5825 108.617 22.7146 108.124 22.7146ZM121.453 23.9763C122.148 23.9763 122.752 23.8253 123.264 23.5234C123.776 23.2214 124.162 22.8278 124.423 22.3426C124.683 21.8573 124.814 21.3397 124.814 20.7898C124.814 20.0781 124.669 19.5146 124.379 19.0995C124.089 18.6843 123.742 18.377 123.336 18.1775C122.93 17.978 122.394 17.7758 121.728 17.5709C121.177 17.3984 120.75 17.2447 120.446 17.1099C120.142 16.9751 119.886 16.7783 119.678 16.5195C119.47 16.2607 119.366 15.9264 119.366 15.5166C119.366 14.9451 119.54 14.5003 119.888 14.1822C120.236 13.8641 120.685 13.705 121.235 13.705C121.825 13.705 122.298 13.8695 122.655 14.1984C123.013 14.5273 123.215 14.9074 123.264 15.3387H124.712C124.635 14.4653 124.295 13.7643 123.691 13.2359C123.087 12.7076 122.312 12.4434 121.366 12.4434C120.709 12.4434 120.127 12.5728 119.62 12.8316C119.113 13.0904 118.719 13.457 118.439 13.9315C118.159 14.4059 118.019 14.9505 118.019 15.5652C118.019 16.2661 118.162 16.8241 118.447 17.2393C118.731 17.6545 119.074 17.9591 119.475 18.1532C119.876 18.3473 120.41 18.5414 121.076 18.7355C121.617 18.8973 122.047 19.0482 122.365 19.1884C122.684 19.3286 122.95 19.5335 123.162 19.8031C123.375 20.0727 123.481 20.4231 123.481 20.8545C123.481 21.4044 123.3 21.8546 122.938 22.2051C122.576 22.5556 122.081 22.7308 121.453 22.7308C120.796 22.7308 120.296 22.5502 119.953 22.1889C119.61 21.8277 119.415 21.3829 119.366 20.8545H117.961C117.971 21.4691 118.125 22.011 118.425 22.4801C118.724 22.9492 119.137 23.3158 119.663 23.58C120.19 23.8442 120.786 23.9763 121.453 23.9763ZM130.218 24.0086C130.971 24.0086 131.657 23.8199 132.275 23.4425C132.893 23.0651 133.383 22.5286 133.746 21.8331C134.108 21.1375 134.289 20.3315 134.289 19.4149C134.289 18.4983 134.113 17.6949 133.76 17.0048C133.407 16.3146 132.927 15.7835 132.318 15.4115C131.71 15.0395 131.029 14.8535 130.276 14.8535C129.522 14.8535 128.841 15.0395 128.233 15.4115C127.624 15.7835 127.144 16.3173 126.791 17.0129C126.439 17.7084 126.263 18.5091 126.263 19.4149C126.263 20.3315 126.434 21.1375 126.777 21.8331C127.12 22.5286 127.593 23.0651 128.197 23.4425C128.8 23.8199 129.474 24.0086 130.218 24.0086ZM130.218 22.7146C129.745 22.7146 129.31 22.5933 128.914 22.3507C128.518 22.108 128.202 21.7387 127.965 21.2427C127.728 20.7466 127.61 20.1374 127.61 19.4149C127.61 18.7032 127.731 18.0993 127.972 17.6032C128.214 17.1072 128.535 16.7379 128.936 16.4952C129.336 16.2526 129.778 16.1313 130.261 16.1313C130.735 16.1313 131.174 16.2526 131.58 16.4952C131.985 16.7379 132.314 17.1072 132.565 17.6032C132.816 18.0993 132.941 18.7032 132.941 19.4149C132.941 20.1266 132.813 20.7305 132.558 21.2265C132.302 21.7225 131.966 22.0946 131.551 22.3426C131.135 22.5906 130.691 22.7146 130.218 22.7146ZM139.49 24.0086C140.243 24.0086 140.929 23.8199 141.547 23.4425C142.165 23.0651 142.655 22.5286 143.018 21.8331C143.38 21.1375 143.561 20.3315 143.561 19.4149C143.561 18.4983 143.385 17.6949 143.032 17.0048C142.68 16.3146 142.199 15.7835 141.591 15.4115C140.982 15.0395 140.301 14.8535 139.548 14.8535C138.795 14.8535 138.114 15.0395 137.505 15.4115C136.897 15.7835 136.416 16.3173 136.064 17.0129C135.711 17.7084 135.535 18.5091 135.535 19.4149C135.535 20.3315 135.706 21.1375 136.049 21.8331C136.392 22.5286 136.865 23.0651 137.469 23.4425C138.073 23.8199 138.746 24.0086 139.49 24.0086ZM139.49 22.7146C139.017 22.7146 138.582 22.5933 138.186 22.3507C137.79 22.108 137.474 21.7387 137.237 21.2427C137 20.7466 136.882 20.1374 136.882 19.4149C136.882 18.7032 137.003 18.0993 137.244 17.6032C137.486 17.1072 137.807 16.7379 138.208 16.4952C138.609 16.2526 139.05 16.1313 139.533 16.1313C140.007 16.1313 140.446 16.2526 140.852 16.4952C141.257 16.7379 141.586 17.1072 141.837 17.6032C142.088 18.0993 142.214 18.7032 142.214 19.4149C142.214 20.1266 142.086 20.7305 141.83 21.2265C141.574 21.7225 141.238 22.0946 140.823 22.3426C140.407 22.5906 139.963 22.7146 139.49 22.7146ZM146.618 23.8631V18.962C146.618 18.0346 146.823 17.3283 147.234 16.843C147.644 16.3578 148.197 16.1151 148.892 16.1151C149.578 16.1151 150.119 16.3497 150.515 16.8187C150.911 17.2878 151.109 17.9645 151.109 18.8487V23.8631H152.413V18.6385C152.413 17.4091 152.114 16.4683 151.515 15.8159C150.916 15.1635 150.134 14.8373 149.168 14.8373C148.627 14.8373 148.132 14.9613 147.683 15.2093C147.234 15.4573 146.879 15.8078 146.618 16.2607V14.999H145.3V23.8631H146.618Z" fill="white"/>
<path d="M70.1554 53.367L71.2381 50.0212H77.1156L78.1983 53.367H80.0544L75.2016 38.4079H73.1715L68.2993 53.367H70.1554ZM76.613 48.4238H71.7408L74.1769 40.8255L76.613 48.4238ZM83.9406 58.9794V51.1868C84.3015 51.8632 84.8267 52.4281 85.5163 52.8814C86.2059 53.3347 87.0018 53.5613 87.9041 53.5613C88.845 53.5613 89.6989 53.3023 90.4658 52.7842C91.2328 52.2662 91.8353 51.5394 92.2736 50.604C92.7118 49.6686 92.9309 48.6037 92.9309 47.4093C92.9309 46.2005 92.7118 45.1392 92.2736 44.2253C91.8353 43.3115 91.2328 42.6028 90.4658 42.0991C89.6989 41.5954 88.845 41.3436 87.9041 41.3436C86.9889 41.3436 86.1866 41.5703 85.497 42.0236C84.8074 42.4769 84.2886 43.0417 83.9406 43.7181V41.5379H82.1812V58.9794H83.9406ZM87.5367 51.8344C86.8923 51.8344 86.2961 51.6581 85.7483 51.3056C85.2005 50.953 84.7623 50.4421 84.4336 49.773C84.1049 49.1038 83.9406 48.3231 83.9406 47.4309C83.9406 46.553 84.1049 45.7795 84.4336 45.1104C84.7623 44.4412 85.2005 43.9303 85.7483 43.5778C86.2961 43.2252 86.8923 43.0489 87.5367 43.0489C88.1941 43.0489 88.7967 43.2216 89.3445 43.567C89.8923 43.9123 90.3273 44.416 90.6495 45.078C90.9718 45.74 91.1329 46.5171 91.1329 47.4093C91.1329 48.3159 90.9718 49.1038 90.6495 49.773C90.3273 50.4421 89.8923 50.953 89.3445 51.3056C88.7967 51.6581 88.1941 51.8344 87.5367 51.8344ZM97.0104 58.9794V51.1868C97.3713 51.8632 97.8966 52.4281 98.5862 52.8814C99.2758 53.3347 100.072 53.5613 100.974 53.5613C101.915 53.5613 102.769 53.3023 103.536 52.7842C104.303 52.2662 104.905 51.5394 105.343 50.604C105.782 49.6686 106.001 48.6037 106.001 47.4093C106.001 46.2005 105.782 45.1392 105.343 44.2253C104.905 43.3115 104.303 42.6028 103.536 42.0991C102.769 41.5954 101.915 41.3436 100.974 41.3436C100.059 41.3436 99.2564 41.5703 98.5668 42.0236C97.8772 42.4769 97.3585 43.0417 97.0104 43.7181V41.5379H95.251V58.9794H97.0104ZM100.607 51.8344C99.9621 51.8344 99.366 51.6581 98.8182 51.3056C98.2704 50.953 97.8321 50.4421 97.5035 49.773C97.1748 49.1038 97.0104 48.3231 97.0104 47.4309C97.0104 46.553 97.1748 45.7795 97.5035 45.1104C97.8321 44.4412 98.2704 43.9303 98.8182 43.5778C99.366 43.2252 99.9621 43.0489 100.607 43.0489C101.264 43.0489 101.867 43.2216 102.414 43.567C102.962 43.9123 103.397 44.416 103.719 45.078C104.042 45.74 104.203 46.5171 104.203 47.4093C104.203 48.3159 104.042 49.1038 103.719 49.773C103.397 50.4421 102.962 50.953 102.414 51.3056C101.867 51.6581 101.264 51.8344 100.607 51.8344ZM117.756 53.5181C118.684 53.5181 119.49 53.3167 120.173 52.9137C120.856 52.5108 121.371 51.9855 121.719 51.338C122.067 50.6904 122.241 49.9996 122.241 49.2657C122.241 48.3159 122.048 47.564 121.661 47.0099C121.275 46.4559 120.811 46.0458 120.269 45.7795C119.728 45.5133 119.013 45.2435 118.123 44.9701C117.389 44.7398 116.818 44.5347 116.412 44.3549C116.006 44.175 115.665 43.9123 115.388 43.567C115.11 43.2216 114.972 42.7755 114.972 42.2286C114.972 41.4659 115.204 40.8723 115.668 40.4478C116.132 40.0232 116.731 39.811 117.466 39.811C118.252 39.811 118.884 40.0304 119.361 40.4694C119.838 40.9083 120.108 41.4156 120.173 41.9912H122.106C122.003 40.8255 121.549 39.8901 120.743 39.185C119.937 38.4798 118.903 38.1273 117.64 38.1273C116.763 38.1273 115.987 38.3 115.31 38.6453C114.633 38.9907 114.108 39.48 113.734 40.1132C113.361 40.7464 113.174 41.4731 113.174 42.2934C113.174 43.2288 113.364 43.9735 113.744 44.5275C114.124 45.0816 114.582 45.4881 115.117 45.7472C115.652 46.0062 116.364 46.2652 117.253 46.5243C117.975 46.7401 118.549 46.9416 118.974 47.1287C119.399 47.3157 119.754 47.5892 120.037 47.9489C120.321 48.3087 120.463 48.7764 120.463 49.352C120.463 50.086 120.221 50.6868 119.738 51.1545C119.254 51.6222 118.594 51.856 117.756 51.856C116.879 51.856 116.212 51.615 115.755 51.1329C115.297 50.6508 115.036 50.0572 114.972 49.352H113.096C113.109 50.1723 113.316 50.8954 113.715 51.5214C114.115 52.1474 114.666 52.6367 115.368 52.9893C116.071 53.3419 116.867 53.5181 117.756 53.5181ZM129.743 53.367V51.7049H128.448C127.906 51.7049 127.526 51.5862 127.307 51.3487C127.088 51.1113 126.978 50.7048 126.978 50.1291V43.1568H129.743V41.5379H126.978V38.559H125.219V41.5379H123.846V43.1568H125.219V50.1291C125.219 51.2804 125.464 52.1079 125.954 52.6115C126.443 53.1152 127.178 53.367 128.158 53.367H129.743ZM136.491 53.5613C137.496 53.5613 138.411 53.3095 139.236 52.8058C140.061 52.3021 140.715 51.5862 141.199 50.658C141.682 49.7298 141.924 48.6541 141.924 47.4309C141.924 46.2077 141.688 45.1356 141.218 44.2145C140.747 43.2935 140.106 42.5848 139.294 42.0883C138.482 41.5918 137.573 41.3436 136.568 41.3436C135.563 41.3436 134.654 41.5918 133.842 42.0883C133.03 42.5848 132.389 43.2971 131.918 44.2253C131.448 45.1535 131.212 46.2221 131.212 47.4309C131.212 48.6541 131.441 49.7298 131.899 50.658C132.356 51.5862 132.988 52.3021 133.794 52.8058C134.599 53.3095 135.498 53.5613 136.491 53.5613ZM136.491 51.8344C135.859 51.8344 135.279 51.6725 134.751 51.3487C134.222 51.025 133.8 50.5321 133.484 49.8701C133.168 49.2081 133.011 48.3951 133.011 47.4309C133.011 46.4811 133.172 45.6752 133.494 45.0132C133.816 44.3513 134.245 43.8584 134.78 43.5346C135.315 43.2108 135.904 43.0489 136.549 43.0489C137.18 43.0489 137.767 43.2108 138.308 43.5346C138.849 43.8584 139.288 44.3513 139.623 45.0132C139.958 45.6752 140.126 46.4811 140.126 47.4309C140.126 48.3807 139.955 49.1865 139.613 49.8485C139.272 50.5105 138.824 51.007 138.269 51.338C137.715 51.6689 137.122 51.8344 136.491 51.8344ZM146.003 53.367V46.9344C146.003 44.5455 146.989 43.3511 148.961 43.3511H149.425V41.322C148.6 41.322 147.901 41.5091 147.327 41.8833C146.754 42.2574 146.312 42.7827 146.003 43.459V41.5379H144.244V53.367H146.003ZM156.037 53.5613C157.301 53.5613 158.358 53.2051 159.208 52.4928C160.059 51.7805 160.626 50.8559 160.91 49.719H159.015C158.809 50.381 158.451 50.9098 157.942 51.3056C157.433 51.7013 156.798 51.8992 156.037 51.8992C155.109 51.8992 154.32 51.5718 153.669 50.917C153.018 50.2622 152.66 49.352 152.596 48.1864H161.064C161.103 47.7691 161.122 47.3733 161.122 46.9992C161.122 45.9198 160.913 44.9521 160.494 44.0958C160.075 43.2396 159.479 42.5668 158.706 42.0775C157.932 41.5882 157.043 41.3436 156.037 41.3436C155.006 41.3436 154.094 41.5918 153.302 42.0883C152.509 42.5848 151.894 43.2935 151.455 44.2145C151.017 45.1356 150.798 46.2077 150.798 47.4309C150.798 48.6541 151.023 49.7298 151.475 50.658C151.926 51.5862 152.548 52.3021 153.34 52.8058C154.133 53.3095 155.032 53.5613 156.037 53.5613ZM159.305 46.589H152.615C152.706 45.4665 153.063 44.5887 153.688 43.9555C154.314 43.3223 155.071 43.0057 155.96 43.0057C156.579 43.0057 157.143 43.146 157.652 43.4267C158.161 43.7073 158.564 44.1174 158.86 44.6571C159.157 45.1967 159.305 45.8407 159.305 46.589Z" fill="white"/>
</g>
<defs>
<clipPath id="clip0_5_575">
<rect width="204.898" height="75.0992" rx="21" fill="white"/>
</clipPath>
</defs>
</svg>
