<svg width="509" height="99" viewBox="0 0 509 99" fill="none" xmlns="http://www.w3.org/2000/svg">
<g clip-path="url(#clip0_3_50)">
<path d="M0 0V99H509V0H0Z" fill="#FFFEFE"/>
<path d="M31 43H30C26.9685 35.9737 22.5424 28.5658 15 26C12.4562 34.9643 22.1031 41.9979 26.564 49C35.2675 62.6614 42.8632 78.4783 43 95H44L38 60C47.4051 62.3567 50.9866 69.5641 58 75.8264C66.8858 83.7605 78.8407 91.0184 91 91.9097C124.685 94.3789 101.829 53.8017 85 46C89.2395 41.7605 93.7497 37.6622 97.5324 33C99.5468 30.5173 101.281 27.851 102.727 25C112.604 5.52085 92.327 4.16415 78 7.21066C58.612 11.3333 38.7897 24.3885 31 43Z" fill="#A7A8A9"/>
<path d="M50 32C58.506 32.3661 69.4466 39.9878 77 39.0208C83.3851 38.2034 101.876 19.2292 95.3927 12.6034C92.5556 9.70392 85.5071 10.8874 82 11.6798C70.484 14.2818 56.9901 22.5038 50 32Z" fill="#FFFEFE"/>
<path d="M170 24V25L172 39V72H173V37C173 32.4285 174.227 26.7404 170 24Z" fill="#A7A8A9"/>
<path d="M169 25V72H170C170 58.735 174.11 37.1766 169 25Z" fill="#A7A8A9"/>
<path d="M170 25C170 39.7635 166.817 58.8495 171 73H172V25H170Z" fill="#A7A8A9"/>
<path d="M129 26V27C137.043 27 152.479 24.0594 159 29C159.59 25.4236 154.661 26.0062 152 26H129Z" fill="#A7A8A9"/>
<path d="M128 27V73C133.364 69.5228 131 57.8186 131 52L157 51V50L130 49V30C136.892 30 154.99 33.1854 159 27H128Z" fill="#A7A8A9"/>
<path d="M127 28V72H128C128 59.5196 131.81 39.4634 127 28Z" fill="#A7A8A9"/>
<path d="M228 28C230.755 39.5715 230.643 38.296 242 41V40L230 39L228 28Z" fill="#A7A8A9"/>
<path d="M254 28C256.755 39.5714 256.643 38.296 268 41V40L256 39L254 28Z" fill="#A7A8A9"/>
<path d="M227 29V40H222V42H227C227 49.6715 224.967 60.7748 227.894 67.956C230.061 73.2757 237.816 74.9113 241 70C225.283 72.538 229 52.1073 229 42H241V40C231.774 39.999 229.007 38.5695 229 29H227ZM253 29V40H248V42H253C253 49.5514 250.871 60.9099 253.742 67.956C255.917 73.2924 263.834 74.8838 267 70C251.283 72.538 255 52.1073 255 42H267V40C257.774 39.999 255.007 38.5695 255 29H253Z" fill="#A7A8A9"/>
<path d="M130 30V49H131L130 30Z" fill="#A7A8A9"/>
<path d="M252 30V38H253L252 30Z" fill="#A7A8A9"/>
<path d="M360 51H361C361.783 54.3859 362.897 57.6607 363.859 61C371.513 87.5784 385.295 56.0601 385.757 43.0154C385.879 39.5726 382.924 36.097 379.509 38.7863C376.816 40.9074 375.991 45.8948 375.025 49L372 59C369.541 53.4451 368.727 41.0382 362.867 38.0718C354.604 33.8883 351.546 54.1637 350 59C348.601 55.7495 347.687 52.4011 346.709 49C345.792 45.8072 345.23 40.9905 342.491 38.7616C339.071 35.9794 335.788 39.3988 335.897 43.0046C336.309 56.5363 349.413 86.8253 357.656 61C358.709 57.6996 359.538 54.4303 360 51Z" fill="#A7A8A9"/>
<path d="M413 53C409.974 52.1057 407.164 51.9656 404 52.0039C381.178 52.2799 393.876 83.5773 413 69C415.072 72.7534 420.199 74.3391 421.682 68.9414C423.477 62.4099 423.309 48.6611 419.297 43.0548C415.344 37.5306 407.21 36.5584 401.001 37.8094C398.394 38.3346 391.714 40.3407 394.288 44.4012C398.459 50.9817 410.379 40.153 413 53Z" fill="#A7A8A9"/>
<path d="M444 61C442.592 57.3501 441.29 53.6735 439.947 50C439.213 47.9936 438.452 45.9914 437.677 44.0008C436.29 40.4419 430.01 33.3387 428.361 41.0586C427.031 47.2849 437.119 72.4223 444 72.7431C451.287 73.0828 461.452 47.4783 460.381 41.1088C459.048 33.1733 451.992 40.3988 450.66 44.0039L448.424 50C447.024 53.7121 445.682 57.4043 444 61Z" fill="#A7A8A9"/>
<path d="M475 58C479.869 58 493.65 60.3674 496.972 56.2577C505.752 45.3971 485.705 35.077 477 37.804C460.766 42.8895 461.357 70.4553 479 72.8117C482.36 73.2605 499.845 71.8841 494.914 64.6073C492.8 61.4882 487.61 64.9446 485 65.3526C479.746 66.1739 476.545 62.4933 475 58Z" fill="#A7A8A9"/>
<path d="M68 44C65.4156 42.4973 62.8251 41.1033 60 40.0903C56.4202 38.8067 39.7045 36.6168 45.1983 45.5818C49.1004 51.9495 63.4704 47.3748 68 44Z" fill="#FFFEFE"/>
<path d="M287 38V39H291L287 38Z" fill="#A7A8A9"/>
<path d="M186 39C183.848 46.2801 183.004 61.2785 187.228 67.9059C192.064 75.4918 205.017 74.7659 209 67H210L212 73V39H211C208.662 46.9112 212.326 56.5361 208.543 63.9961C204.232 72.4977 192.698 73.247 188.703 63.9961C185.265 56.0356 189.23 46.6981 186 39Z" fill="#A7A8A9"/>
<path d="M223 39V40H227L223 39ZM248 39V40H253L248 39Z" fill="#A7A8A9"/>
<path d="M303 67L302 66C291.436 71.7929 278.585 72.3797 277 57H304C303.631 39.6936 280.483 30.3101 274.789 50C269.729 67.5025 290.823 83.3429 303 67Z" fill="#A7A8A9"/>
<path d="M314 39C311.287 48.1775 311.287 64.8225 314 74H315L314 39Z" fill="#A7A8A9"/>
<path d="M315 39L316 49H317L315 39Z" fill="#A7A8A9"/>
<path d="M317 49H316V40H314V73H316C316 65.3693 315.016 55.6568 319.611 49.0185C322.608 44.6897 329.588 43.8306 331 39C324.461 39.9844 320.062 43.1152 317 49Z" fill="#A7A8A9"/>
<path d="M187 40V60H188L187 40ZM212 40V71H213L212 40Z" fill="#A7A8A9"/>
<path d="M386 40V43H387L386 40Z" fill="#A7A8A9"/>
<path d="M427 40V43H428L427 40Z" fill="#A7A8A9"/>
<path d="M287 41V42H291L287 41Z" fill="#A7A8A9"/>
<path d="M229 42V65H230L229 42Z" fill="#A7A8A9"/>
<path d="M252 42V65H253L252 42Z" fill="#A7A8A9"/>
<path d="M255 42V65H256L255 42Z" fill="#A7A8A9"/>
<path d="M277 54H301C296.86 39.863 279.941 37.7615 277 54Z" fill="#FFFEFE"/>
<path d="M403 45V46H407L403 45Z" fill="#A7A8A9"/>
<path d="M475 52H489C486.133 43.7708 477.867 43.7709 475 52Z" fill="#FFFEFE"/>
<path d="M422 50V69H423L422 50Z" fill="#A7A8A9"/>
<path d="M53 60C59.185 68.7745 70.3553 77.0278 81 79.4707C84.3598 80.2417 90.7389 81.063 92.9715 77.6821C97.6674 70.5707 84.288 52.2422 77 51.8241C69.644 51.402 60.8046 58.9482 53 60Z" fill="#FFFEFE"/>
<path d="M401 51V52H408L401 51Z" fill="#A7A8A9"/>
<path d="M498 51V55H499L498 51Z" fill="#A7A8A9"/>
<path d="M475 52V53H489L475 52ZM273 53V59H274L273 53ZM304 53V57H305L304 53Z" fill="#A7A8A9"/>
<path d="M277 54V55H301L277 54Z" fill="#A7A8A9"/>
<path d="M277 57V58H303L277 57Z" fill="#A7A8A9"/>
<path d="M413 58C411.044 57.7541 408.972 57.2449 406.996 57.2785C392.512 57.5252 411.024 75.6839 413 58Z" fill="#FFFEFE"/>
<path d="M316 58V73H317L316 58Z" fill="#A7A8A9"/>
<path d="M475 58V59H495L475 58Z" fill="#A7A8A9"/>
<path d="M390 60V65H391L390 60Z" fill="#A7A8A9"/>
<path d="M482 65V66H485L482 65Z" fill="#A7A8A9"/>
<path d="M496 65V68H497L496 65Z" fill="#A7A8A9"/>
<path d="M235 70V71H239L235 70Z" fill="#A7A8A9"/>
<path d="M261 70V71H264L261 70Z" fill="#A7A8A9"/>
<path d="M195 73V74H201L195 73Z" fill="#A7A8A9"/>
<path d="M234 73V74H238L234 73ZM260 73V74H264L260 73Z" fill="#A7A8A9"/>
<path d="M401 73V74H404L401 73Z" fill="#A7A8A9"/>
<path d="M416 73V74H419L416 73ZM442 73V74H446L442 73ZM478 73V74H481L478 73Z" fill="#A7A8A9"/>
<path d="M483 73V74H487L483 73Z" fill="#A7A8A9"/>
</g>
<defs>
<clipPath id="clip0_3_50">
<rect width="509" height="99" fill="white"/>
</clipPath>
</defs>
</svg>
