<svg width="386" height="130" viewBox="0 0 386 130" fill="none" xmlns="http://www.w3.org/2000/svg">
<g clip-path="url(#clip0_3_33)">
<path d="M0 0V130H386V0H0Z" fill="#FEFEFE"/>
<path d="M95 45H50V58H82C76.7228 96.9974 20.4081 89.4477 15.3002 54C12.1886 32.4065 31.5752 12.5267 53 14.0903C60.7748 14.6577 66.0148 20.5794 73 21.7477C76.9124 22.4021 83.4752 16.29 81.2485 12.3009C74.6931 0.557249 51.2257 -0.423282 40 1.80788C12.0665 7.35976 -6.74718 37.5723 3.09027 65C15.7837 100.39 70.7702 112.041 90.4822 76C95.6189 66.6085 96.3066 55.3384 95 45Z" fill="#A7A8A9"/>
<path d="M306 4V96H319V4H306Z" fill="#A7A8A9"/>
<path d="M128 35V36H137L128 35ZM199 35.4645C157.454 39.3006 162.48 102.221 204 97.8264C243.658 93.629 238.809 31.7887 199 35.4645Z" fill="#A7A8A9"/>
<path d="M285 91C284.555 112.542 265.781 121.075 252 103L240 107C246.196 126.405 274.17 132.467 288.815 118.671C303.008 105.301 298 76.5018 298 59C298 54.1032 300.124 42.5824 296.972 38.6034C294.738 35.7823 288.18 37 285 37V42C280.084 39.0406 275.798 36.3968 270 35.6057C228.525 29.9465 227.252 102.268 270 97.8256C275.939 97.2085 280.157 94.16 285 91Z" fill="#A7A8A9"/>
<path d="M351 35V36H359L351 35Z" fill="#FBBC0A"/>
<path d="M125 36.4676C86.4033 43.7491 99.4764 104.328 138 97.3843C179.587 89.8889 166.334 28.6696 125 36.4676Z" fill="#A7A8A9"/>
<path d="M341 76L383 59C379.822 49.6659 374.608 41.1595 365 37.4684C344.505 29.5944 322.757 47.515 325.293 69C327.337 86.3147 341.795 100.294 360 97.6998C364.865 97.0066 384.323 91.0025 380.168 83.3256C374.68 73.1866 365.701 84.0738 359 85.456C351.128 87.0797 345.397 81.755 341 76Z" fill="#A7A8A9"/>
<path d="M353 47V48H358L353 47Z" fill="#FBBC0A"/>
<path d="M128 48.5332C106.077 53.8606 114.544 90.6351 137 84.9414C159.068 79.3459 151.115 42.916 128 48.5332Z" fill="#FEFEFE"/>
<path d="M195 48.6528C174.086 55.2123 182.999 91.4626 205 85.2099C228.202 78.6157 218.701 41.219 195 48.6528ZM263 48.6528C242.227 55.1683 251.411 91.6172 273 85.1991C294.592 78.7799 285.981 41.4447 263 48.6528Z" fill="#FEFEFE"/>
<path d="M339 65L367 54C357.249 40.9149 339.668 50.5911 339 65Z" fill="#FEFEFE"/>
<path d="M150 64V69H151L150 64Z" fill="#A7A8A9"/>
</g>
<defs>
<clipPath id="clip0_3_33">
<rect width="386" height="130" fill="white"/>
</clipPath>
</defs>
</svg>
