<svg width="487" height="103" viewBox="0 0 487 103" fill="none" xmlns="http://www.w3.org/2000/svg">
<g clip-path="url(#clip0_3_348)">
<path d="M0 0V49H50V0H0Z" fill="#A7A8A9"/>
<path d="M50 0V49H0V54H50V103H55V54H104V103H487V82C462.432 86.5611 465 64.7713 465 47H450V82H439V47H432V38H439C439.005 30.6061 439.721 24.2968 446.015 19.419C453.391 13.7028 461.883 15.1219 462 25C452.073 25.0077 450.006 28.3633 450 38H465C465.007 29.2999 467.54 26.9581 476 25V38H487V0H104V49H55V0H50Z" fill="#FEFEFE"/>
<path d="M55 0V49H104V0H55Z" fill="#A7A8A9"/>
<path d="M439 38H432V46H439V82H450V46H466C466 63.0941 461.459 86.5561 486 82V74C471.842 76.9115 476 54.6747 476 46H486V38H476V25C467.513 27.4096 466.001 29.179 466 38H450C450.005 29.8332 451.409 23.6649 461 25C460.963 14.5615 451.487 13.7297 444.214 20.3943C439.455 24.7548 439.05 31.9691 439 38Z" fill="#A7A8A9"/>
<path d="M461 17V25H462L461 17ZM216 19V20H220L216 19Z" fill="#A6A1A0"/>
<path d="M215.228 20.7461C208.632 23.7229 214.666 33.5009 220.852 29.9676C227.28 26.2957 221.489 17.9211 215.228 20.7461Z" fill="#A7A8A9"/>
<path d="M135 21V82H136V41L135 21Z" fill="#A6A1A0"/>
<path d="M136 21V82H145V34H146C149.464 46.6641 155.728 58.8188 160.6 71C162.15 74.8738 163.575 82.2146 168.999 81.7932C173.983 81.406 175.279 74.8024 176.8 71C181.662 58.8466 187.55 46.6383 191 34H192V82H202V21L188.499 22.0278L182.85 33L170 66C162.638 58.4122 159.888 43.7509 156 34C154.628 30.5598 153.396 24.3239 150.301 22.0278C147.052 19.6176 139.865 21 136 21Z" fill="#A7A8A9"/>
<path d="M202 21V82H203V41L202 21ZM455 24V25H459L455 24ZM439 28V31H440L439 28ZM465 28V38H466L465 28Z" fill="#A6A1A0"/>
<path d="M265 72C260.716 73.222 256.594 75.5953 252 74.6019C239.34 71.8641 237.766 54.3503 248.015 47.7392C253.528 44.1833 259.649 46.4998 265 49V39C259.529 37.9391 254.572 36.7 249 37.8079C230.567 41.4727 223.062 69.056 240.015 79.8557C249.852 86.1223 264.99 85.1571 265 72Z" fill="#A7A8A9"/>
<path d="M257 37V38H260L257 37ZM293 37V38H298L293 37ZM317 37V38H320L317 37Z" fill="#A6A1A0"/>
<path d="M320 37.4429C289.427 41.8937 296.31 88.2382 328 82.6713C355.121 77.907 348.29 33.3246 320 37.4429Z" fill="#A7A8A9"/>
<path d="M326 37V38H329L326 37Z" fill="#A6A1A0"/>
<path d="M351 72C351.012 87.7204 375.893 86.6646 379.566 73C381.597 65.442 376.3 59.98 370 57.0285C366.938 55.594 360.921 53.6059 361.971 49.0934C363.667 41.8027 373.868 46.8214 378 48L377 38C373.325 37.5356 369.726 36.8761 366 37.0409C356.428 37.4643 346.343 47.1963 352.742 56.9568C356.409 62.5494 364.82 62.7272 368.149 68.2091C374.181 78.1412 353.876 72.7846 351 72Z" fill="#A7A8A9"/>
<path d="M402 37V38H405L402 37Z" fill="#A6A1A0"/>
<path d="M405 37.4429C374.439 41.8919 381.433 88.2167 413 82.6713C440.12 77.9071 433.303 33.3227 405 37.4429Z" fill="#A7A8A9"/>
<path d="M411 37V38H414L411 37Z" fill="#A6A1A0"/>
<path d="M213 38V82H223V38H213Z" fill="#A7A8A9"/>
<path d="M273 38V82H283C283 70.0704 279.438 42.9216 299 48V38C291.472 38.005 288.083 39.3222 283 45V38H273Z" fill="#A7A8A9"/>
<path d="M283 38V45H284L283 38ZM377 38V47H378L377 38ZM486 38V46H476V47C482.454 46.9993 489.524 46.42 486 38ZM321 45V46H325L321 45ZM406 45V46H410L406 45Z" fill="#A6A1A0"/>
<path d="M319.015 46.6528C304.431 51.3438 310.54 80.3996 326.996 74.1057C341.05 68.7308 335.87 41.2309 319.015 46.6528Z" fill="#FEFEFE"/>
<path d="M404.015 46.6528C389.431 51.3438 395.54 80.3996 411.996 74.1057C426.05 68.7308 420.87 41.2309 404.015 46.6528Z" fill="#FEFEFE"/>
<path d="M432 46V47H439L432 46ZM450 46V47H465V72H466V46H450Z" fill="#A6A1A0"/>
<path d="M486 46L476 47C476 57.7845 471.63 75.6135 487 74L486 46Z" fill="#FEFEFE"/>
<path d="M0 54V103H1C1 89.2121 5.30899 66.652 0 54Z" fill="#A6A1A0"/>
<path d="M1 54V103H49V54H1Z" fill="#A7A8A9"/>
<path d="M49 54V103H50C50 89.2121 54.309 66.652 49 54Z" fill="#A6A1A0"/>
<path d="M55 54V103H104V54H55Z" fill="#A7A8A9"/>
<path d="M241 56V59H242L241 56ZM345 57V63H346L345 57ZM430 57V63H431L430 57ZM230 58V65H231L230 58ZM283 58V82H284L283 58ZM241 62V65H242L241 62ZM385 65V68H386L385 65ZM369 69V72H370L369 69ZM350 71V81H351L352 71H350ZM486 74V82H487L486 74ZM319 83V84H325L319 83ZM404 83V84H410L404 83Z" fill="#A6A1A0"/>
</g>
<defs>
<clipPath id="clip0_3_348">
<rect width="487" height="103" fill="white"/>
</clipPath>
</defs>
</svg>
