<svg width="298" height="169" viewBox="0 0 298 169" fill="none" xmlns="http://www.w3.org/2000/svg">
<g clip-path="url(#clip0_3_381)">
<path d="M0 0V169H298V0H0Z" fill="white"/>
<path d="M48 111H49V58H56C47.561 54.4973 48 63.1426 48 69V111Z" fill="#A7A8A9"/>
<path d="M67 86H68V58H75V108C79.0077 98.4491 76 82.3718 76 72C76 68.3487 77.0485 62.6736 75.3966 59.3179C73.9732 56.4264 69.0268 56.4264 67.6034 59.3179C65.7312 63.1211 67 69.8459 67 74V86Z" fill="#A7A8A9"/>
<path d="M84 57V58H107L84 57Z" fill="#A7A8A9"/>
<path d="M107 57V66H108L107 57Z" fill="#A7A8A9"/>
<path d="M113 57V58H139L113 57Z" fill="#A7A8A9"/>
<path d="M139 57V66H140L139 57ZM144 57V105H145C145 91.4735 149.209 69.4143 144 57Z" fill="#A7A8A9"/>
<path d="M145 57V58H168L145 57Z" fill="#A7A8A9"/>
<path d="M174 57V58H182L174 57Z" fill="#A7A8A9"/>
<path d="M204 57V58H212L204 57Z" fill="#A7A8A9"/>
<path d="M220 59L229 58C225.911 56.7041 222.307 56.3594 220 59Z" fill="#A7A8A9"/>
<path d="M240 58V59L250 58H240Z" fill="#A7A8A9"/>
<path d="M49 58V111C60.4456 110.366 56 89.6175 56 81H57L66 109L75 108V58H68V88C62.1667 78.7976 61.8324 58.1521 49 58Z" fill="#A7A8A9"/>
<path d="M84 58V107L107 105V98L92 99V85H103V78H92V65H107V58H84ZM113 58V65H122V105L130 104V65H139V58H113ZM145 58V104H153V85H164V77H153V65H168V58H145Z" fill="#A7A8A9"/>
<path d="M168 58V65H169L168 58Z" fill="#A7A8A9"/>
<path d="M174 58V105L197 106V98L182 97V58H174Z" fill="#A7A8A9"/>
<path d="M182 58V97H183C183 85.8276 186.311 68.274 182 58Z" fill="#A7A8A9"/>
<path d="M204 58V106L212 107V58H204Z" fill="#A7A8A9"/>
<path d="M212 58V107H213C213 93.2121 217.309 70.652 212 58Z" fill="#A7A8A9"/>
<path d="M221 58L229.092 83L219 108C229.383 107.992 229.948 102.561 234 94L240 110L249 111L239.539 83L249 58C239.493 58.0336 237.826 63.6966 235 72C230.393 64.5876 231.082 58.0357 221 58Z" fill="#A7A8A9"/>
<path d="M92 65V66H107L92 65ZM113 65V66H122L113 65ZM130 65V66H139L130 65ZM153 65V66H168L153 65Z" fill="#A7A8A9"/>
<path d="M130 66V105H131C131 93.8276 134.311 76.274 130 66Z" fill="#A7A8A9"/>
<path d="M92 67V76H93L92 67Z" fill="#A7A8A9"/>
<path d="M153 67V75H154L153 67Z" fill="#A7A8A9"/>
<path d="M153 76V77H165L153 76Z" fill="#A7A8A9"/>
<path d="M92 77V78H103V85H92V86H104C103.968 76.8753 100.199 77 92 77Z" fill="#A7A8A9"/>
<path d="M164 77V85H165L164 77Z" fill="#A7A8A9"/>
<path d="M56 82V110H57L56 82Z" fill="#A7A8A9"/>
<path d="M153 85V86H165L153 85Z" fill="#A7A8A9"/>
<path d="M66 86L68 88V86H66Z" fill="#A7A8A9"/>
<path d="M92 87V97H93L92 87Z" fill="#A7A8A9"/>
<path d="M153 87V104H154L153 87Z" fill="#A7A8A9"/>
<path d="M99 97V98H103L99 97Z" fill="#A7A8A9"/>
<path d="M103 97V98H106L103 97Z" fill="#A7A8A9"/>
<path d="M107 97V106H108L107 97Z" fill="#A7A8A9"/>
<path d="M187 97V98H192L187 97Z" fill="#A7A8A9"/>
<path d="M192 97V98H195L192 97Z" fill="#A7A8A9"/>
<path d="M92 98V99H95L92 98Z" fill="#A7A8A9"/>
<path d="M197 98V106H198L197 98Z" fill="#A7A8A9"/>
<path d="M125 104V105H130L125 104Z" fill="#A7A8A9"/>
<path d="M145 104V105H153L145 104Z" fill="#A7A8A9"/>
<path d="M104 105V106H107L104 105Z" fill="#A7A8A9"/>
<path d="M180 105V106H186L180 105Z" fill="#A7A8A9"/>
<path d="M186 105V106H189L186 105Z" fill="#A7A8A9"/>
<path d="M189 105V106H194L189 105Z" fill="#A7A8A9"/>
<path d="M90 106V107H94L90 106Z" fill="#A7A8A9"/>
<path d="M94 106V107H97L94 106Z" fill="#A7A8A9"/>
<path d="M97 106V107H100L97 106Z" fill="#A7A8A9"/>
<path d="M205 106V107H208L205 106Z" fill="#A7A8A9"/>
<path d="M70 108V109H73L70 108Z" fill="#A7A8A9"/>
<path d="M249 110L248 112H250L249 110Z" fill="#A7A8A9"/>
</g>
<defs>
<clipPath id="clip0_3_381">
<rect width="298" height="169" fill="white"/>
</clipPath>
</defs>
</svg>
