<svg width="215" height="75" viewBox="0 0 215 75" fill="none" xmlns="http://www.w3.org/2000/svg">
<path d="M62.234 24.2045C63.3877 24.2045 64.3946 23.9106 65.2548 23.3229C65.8204 22.9365 66.2854 22.444 66.6497 21.8455C66.936 21.3752 66.554 20.8239 66.0034 20.8239V20.8239C65.6873 20.8239 65.4081 21.016 65.2473 21.2882C64.9775 21.7452 64.6334 22.1108 64.215 22.3848C63.6635 22.746 63.0032 22.9266 62.234 22.9266C61.4953 22.9266 60.8324 22.7433 60.2455 22.3767C59.6585 22.01 59.198 21.4897 58.8641 20.8158C58.5301 20.1418 58.3631 19.3573 58.3631 18.4623C58.3631 17.5565 58.5301 16.7666 58.8641 16.0926C59.198 15.4186 59.6585 14.8983 60.2455 14.5317C60.8324 14.1651 61.4953 13.9817 62.234 13.9817C63.0032 13.9817 63.6635 14.1651 64.215 14.5317C64.6331 14.8097 64.9771 15.1775 65.2469 15.6352C65.4079 15.9081 65.6877 16.1007 66.0046 16.1007V16.1007C66.5554 16.1007 66.9385 15.55 66.655 15.0778C66.2899 14.4694 65.8232 13.9692 65.2548 13.5774C64.3946 12.9843 63.3877 12.6877 62.234 12.6877C61.2524 12.6877 60.3593 12.9357 59.5548 13.4318C58.7502 13.9278 58.1152 14.6153 57.6497 15.4941C57.1842 16.373 56.9514 17.3624 56.9514 18.4623C56.9514 19.5622 57.1842 20.5489 57.6497 21.4223C58.1152 22.2958 58.7502 22.9779 59.5548 23.4685C60.3593 23.9591 61.2524 24.2045 62.234 24.2045ZM72.8145 24.253C73.6038 24.253 74.3223 24.0643 74.97 23.6869C75.6177 23.3094 76.1313 22.773 76.5108 22.0774C76.8903 21.3819 77.08 20.5758 77.08 19.6592C77.08 18.7426 76.8953 17.9393 76.526 17.2491C76.1566 16.559 75.6531 16.0279 75.0156 15.6559C74.378 15.2838 73.6645 15.0978 72.8752 15.0978C72.0858 15.0978 71.3724 15.2838 70.7348 15.6559C70.0973 16.0279 69.5938 16.5617 69.2244 17.2572C68.855 17.9528 68.6703 18.7534 68.6703 19.6592C68.6703 20.5758 68.85 21.3819 69.2092 22.0774C69.5685 22.773 70.0644 23.3094 70.6969 23.6869C71.3294 24.0643 72.0352 24.253 72.8145 24.253ZM72.8145 22.959C72.3186 22.959 71.8632 22.8377 71.4483 22.595C71.0333 22.3524 70.7019 21.9831 70.454 21.487C70.206 20.991 70.0821 20.3817 70.0821 19.6592C70.0821 18.9475 70.2086 18.3437 70.4616 17.8476C70.7146 17.3516 71.0511 16.9822 71.471 16.7396C71.891 16.497 72.354 16.3757 72.86 16.3757C73.3559 16.3757 73.8163 16.497 74.2414 16.7396C74.6664 16.9822 75.0105 17.3516 75.2736 17.8476C75.5367 18.3437 75.6683 18.9475 75.6683 19.6592C75.6683 20.3709 75.5342 20.9748 75.266 21.4709C74.9978 21.9669 74.6462 22.3389 74.211 22.587C73.7759 22.835 73.3103 22.959 72.8145 22.959ZM79.5923 24.1074C79.9738 24.1074 80.283 23.7982 80.283 23.4167V19.2225C80.283 18.2951 80.4955 17.5861 80.9206 17.0955C81.3456 16.6048 81.9174 16.3595 82.6359 16.3595C83.3342 16.3595 83.8882 16.594 84.2981 17.0631C84.7079 17.5322 84.9129 18.2089 84.9129 19.0931V23.4243C84.9129 23.8016 85.2187 24.1074 85.596 24.1074V24.1074C85.9732 24.1074 86.2791 23.8016 86.2791 23.4243V19.2225C86.2791 18.2951 86.4916 17.5861 86.9166 17.0955C87.3417 16.6048 87.9134 16.3595 88.632 16.3595C89.3302 16.3595 89.8843 16.594 90.2942 17.0631C90.704 17.5322 90.909 18.2089 90.909 19.0931V23.4243C90.909 23.8016 91.2148 24.1074 91.5921 24.1074V24.1074C91.9693 24.1074 92.2752 23.8016 92.2752 23.4243V18.8828C92.2752 18.0633 92.1284 17.3678 91.8349 16.7962C91.5415 16.2247 91.1417 15.7961 90.6357 15.5103C90.1297 15.2245 89.5529 15.0817 88.9052 15.0817C88.2474 15.0817 87.6503 15.2542 87.114 15.5993V15.5993C86.5494 15.9625 85.3597 15.9674 84.7949 15.6045C84.7837 15.5973 84.7724 15.5902 84.7611 15.5831C84.2247 15.2488 83.6074 15.0817 82.9091 15.0817C82.3525 15.0817 81.844 15.2057 81.3835 15.4537C81.22 15.5418 81.0682 15.6435 80.9283 15.7588C80.7131 15.9361 80.283 15.7961 80.283 15.5172V15.5172C80.283 15.366 80.1604 15.2434 80.0092 15.2434H79.5923C79.2109 15.2434 78.9016 15.5526 78.9016 15.9341V23.4167C78.9016 23.7982 79.2109 24.1074 79.5923 24.1074V24.1074ZM95.2504 13.8038C95.5034 13.8038 95.7185 13.7068 95.8956 13.5127C96.0727 13.3186 96.1612 13.0813 96.1612 12.801C96.1612 12.5206 96.0727 12.2833 95.8956 12.0892C95.7185 11.8951 95.5034 11.7981 95.2504 11.7981C94.9873 11.7981 94.7647 11.8951 94.5825 12.0892C94.4003 12.2833 94.3093 12.5206 94.3093 12.801C94.3093 13.0813 94.4003 13.3186 94.5825 13.5127C94.7647 13.7068 94.9873 13.8038 95.2504 13.8038ZM95.2277 24.1074C95.6091 24.1074 95.9183 23.7982 95.9183 23.4167V15.9341C95.9183 15.5526 95.6091 15.2434 95.2277 15.2434V15.2434C94.8462 15.2434 94.537 15.5526 94.537 15.9341V23.4167C94.537 23.7982 94.8462 24.1074 95.2277 24.1074V24.1074ZM98.9619 24.1074C99.3434 24.1074 99.6526 23.7982 99.6526 23.4167V19.2063C99.6526 18.279 99.8677 17.5726 100.298 17.0874C100.728 16.6021 101.307 16.3595 102.036 16.3595C102.754 16.3595 103.321 16.594 103.736 17.0631C104.151 17.5322 104.358 18.2089 104.358 19.0931V23.4243C104.358 23.8016 104.664 24.1074 105.041 24.1074V24.1074C105.419 24.1074 105.725 23.8016 105.725 23.4243V18.8828C105.725 17.6535 105.411 16.7127 104.783 16.0603C104.156 15.4079 103.336 15.0817 102.324 15.0817C101.758 15.0817 101.239 15.2057 100.768 15.4537C100.598 15.5435 100.441 15.6467 100.296 15.7633C100.08 15.9381 99.6526 15.7963 99.6526 15.5181V15.5181C99.6526 15.3664 99.5296 15.2434 99.3779 15.2434H98.9619C98.5805 15.2434 98.2712 15.5526 98.2712 15.9341V23.4167C98.2712 23.7982 98.5805 24.1074 98.9619 24.1074V24.1074ZM111.933 28.4747C112.733 28.4747 113.433 28.2968 114.036 27.9409C114.638 27.5851 115.101 27.0917 115.425 26.4609C115.748 25.8301 115.91 25.1103 115.91 24.3015V15.9417C115.91 15.556 115.598 15.2434 115.212 15.2434H114.831C114.656 15.2434 114.514 15.3855 114.514 15.5608V15.5608C114.514 15.8931 113.949 16.0758 113.689 15.868C113.571 15.773 113.443 15.6834 113.307 15.5993C112.766 15.265 112.136 15.0978 111.417 15.0978C110.678 15.0978 110.008 15.2865 109.406 15.664C108.804 16.0414 108.33 16.5725 107.986 17.2572C107.642 17.942 107.47 18.7373 107.47 19.6431C107.47 20.5381 107.642 21.3361 107.986 22.037C108.33 22.7379 108.804 23.2825 109.406 23.6707C110.008 24.0589 110.678 24.253 111.417 24.253C112.136 24.253 112.763 24.0805 113.299 23.7354V23.7354C113.69 23.4844 114.514 23.7722 114.514 24.2361V24.3015C114.514 25.2181 114.273 25.9298 113.793 26.4367C113.312 26.9435 112.692 27.1969 111.933 27.1969C111.265 27.1969 110.693 27.0324 110.218 26.7035C109.9 26.4837 109.654 26.2169 109.481 25.9032C109.326 25.6221 109.055 25.4014 108.734 25.4014V25.4014C108.299 25.4014 107.956 25.7913 108.108 26.1989C108.326 26.7806 108.69 27.2642 109.201 27.6498C109.929 28.1997 110.84 28.4747 111.933 28.4747ZM111.69 22.959C111.174 22.959 110.704 22.8269 110.279 22.5627C109.854 22.2985 109.515 21.9157 109.262 21.4143C109.009 20.9128 108.882 20.3224 108.882 19.6431C108.882 18.9745 109.009 18.3922 109.262 17.8961C109.515 17.4001 109.854 17.0227 110.279 16.7639C110.704 16.5051 111.174 16.3757 111.69 16.3757C112.206 16.3757 112.68 16.5078 113.11 16.772C113.54 17.0362 113.881 17.4163 114.134 17.9123C114.387 18.4084 114.514 18.9907 114.514 19.6592C114.514 20.3278 114.387 20.9128 114.134 21.4143C113.881 21.9157 113.54 22.2985 113.11 22.5627C112.68 22.8269 112.206 22.959 111.69 22.959ZM125.656 24.2206C126.384 24.2206 127.017 24.0697 127.553 23.7677C128.09 23.4658 128.494 23.0722 128.768 22.587C129.041 22.1017 129.178 21.5841 129.178 21.0341C129.178 20.3224 129.026 19.759 128.722 19.3438C128.419 18.9287 128.054 18.6213 127.629 18.4218C127.204 18.2223 126.643 18.0202 125.944 17.8153C125.367 17.6427 124.92 17.4891 124.601 17.3543C124.282 17.2195 124.014 17.0227 123.796 16.7639C123.579 16.5051 123.47 16.1708 123.47 15.761C123.47 15.1895 123.652 14.7447 124.016 14.4266C124.381 14.1084 124.851 13.9494 125.428 13.9494C126.045 13.9494 126.541 14.1138 126.916 14.4427C127.093 14.5982 127.234 14.7651 127.338 14.9435C127.534 15.2778 127.846 15.5831 128.233 15.5831V15.5831C128.683 15.5831 129.046 15.1897 128.898 14.7651C128.721 14.2604 128.422 13.8321 128.001 13.4803C127.369 12.9519 126.557 12.6877 125.565 12.6877C124.877 12.6877 124.267 12.8171 123.736 13.0759C123.204 13.3347 122.792 13.7014 122.498 14.1758C122.205 14.6503 122.058 15.1949 122.058 15.8095C122.058 16.5105 122.207 17.0685 122.506 17.4837C122.805 17.8988 123.164 18.2035 123.584 18.3976C124.004 18.5917 124.563 18.7858 125.261 18.9799C125.828 19.1416 126.278 19.2926 126.612 19.4328C126.946 19.573 127.224 19.7779 127.447 20.0474C127.67 20.317 127.781 20.6675 127.781 21.0988C127.781 21.6488 127.591 22.099 127.212 22.4495C126.832 22.7999 126.314 22.9752 125.656 22.9752C124.968 22.9752 124.444 22.7945 124.085 22.4333C123.89 22.2371 123.74 22.0164 123.636 21.7709C123.482 21.4081 123.169 21.0988 122.775 21.0988V21.0988C122.348 21.0988 121.991 21.4543 122.099 21.8678C122.179 22.1762 122.308 22.4617 122.483 22.7244C122.797 23.1935 123.23 23.5602 123.781 23.8244C124.333 24.0885 124.958 24.2206 125.656 24.2206ZM134.84 24.253C135.629 24.253 136.348 24.0643 136.995 23.6869C137.643 23.3094 138.157 22.773 138.536 22.0774C138.916 21.3819 139.105 20.5758 139.105 19.6592C139.105 18.7426 138.921 17.9393 138.551 17.2491C138.182 16.559 137.678 16.0279 137.041 15.6559C136.403 15.2838 135.69 15.0978 134.9 15.0978C134.111 15.0978 133.398 15.2838 132.76 15.6559C132.123 16.0279 131.619 16.5617 131.25 17.2572C130.88 17.9528 130.696 18.7534 130.696 19.6592C130.696 20.5758 130.875 21.3819 131.234 22.0774C131.594 22.773 132.09 23.3094 132.722 23.6869C133.355 24.0643 134.06 24.253 134.84 24.253ZM134.84 22.959C134.344 22.959 133.888 22.8377 133.474 22.595C133.059 22.3524 132.727 21.9831 132.479 21.487C132.231 20.991 132.107 20.3817 132.107 19.6592C132.107 18.9475 132.234 18.3437 132.487 17.8476C132.74 17.3516 133.076 16.9822 133.496 16.7396C133.916 16.497 134.379 16.3757 134.885 16.3757C135.381 16.3757 135.842 16.497 136.267 16.7396C136.692 16.9822 137.036 17.3516 137.299 17.8476C137.562 18.3437 137.694 18.9475 137.694 19.6592C137.694 20.3709 137.559 20.9748 137.291 21.4709C137.023 21.9669 136.671 22.3389 136.236 22.587C135.801 22.835 135.336 22.959 134.84 22.959ZM144.555 24.253C145.344 24.253 146.063 24.0643 146.71 23.6869C147.358 23.3094 147.872 22.773 148.251 22.0774C148.631 21.3819 148.82 20.5758 148.82 19.6592C148.82 18.7426 148.636 17.9393 148.266 17.2491C147.897 16.559 147.394 16.0279 146.756 15.6559C146.118 15.2838 145.405 15.0978 144.616 15.0978C143.826 15.0978 143.113 15.2838 142.475 15.6559C141.838 16.0279 141.334 16.5617 140.965 17.2572C140.595 17.9528 140.411 18.7534 140.411 19.6592C140.411 20.5758 140.59 21.3819 140.95 22.0774C141.309 22.773 141.805 23.3094 142.437 23.6869C143.07 24.0643 143.776 24.253 144.555 24.253ZM144.555 22.959C144.059 22.959 143.604 22.8377 143.189 22.595C142.774 22.3524 142.442 21.9831 142.194 21.487C141.946 20.991 141.823 20.3817 141.823 19.6592C141.823 18.9475 141.949 18.3437 142.202 17.8476C142.455 17.3516 142.791 16.9822 143.211 16.7396C143.631 16.497 144.094 16.3757 144.6 16.3757C145.096 16.3757 145.557 16.497 145.982 16.7396C146.407 16.9822 146.751 17.3516 147.014 17.8476C147.277 18.3437 147.409 18.9475 147.409 19.6592C147.409 20.3709 147.275 20.9748 147.006 21.4709C146.738 21.9669 146.387 22.3389 145.951 22.587C145.516 22.835 145.051 22.959 144.555 22.959ZM151.333 24.1074C151.714 24.1074 152.023 23.7982 152.023 23.4167V19.2063C152.023 18.279 152.238 17.5726 152.669 17.0874C153.099 16.6021 153.678 16.3595 154.407 16.3595C155.125 16.3595 155.692 16.594 156.107 17.0631C156.522 17.5322 156.729 18.2089 156.729 19.0931V23.4243C156.729 23.8016 157.035 24.1074 157.412 24.1074V24.1074C157.79 24.1074 158.095 23.8016 158.095 23.4243V18.8828C158.095 17.6535 157.782 16.7127 157.154 16.0603C156.527 15.4079 155.707 15.0817 154.695 15.0817C154.128 15.0817 153.61 15.2057 153.139 15.4537C152.969 15.5435 152.811 15.6467 152.667 15.7633C152.45 15.9381 152.023 15.7963 152.023 15.5181V15.5181C152.023 15.3664 151.9 15.2434 151.749 15.2434H151.333C150.951 15.2434 150.642 15.5526 150.642 15.9341V23.4167C150.642 23.7982 150.951 24.1074 151.333 24.1074V24.1074Z" fill="black"/>
<path d="M197.038 1H17.2642C8.28174 1 1 8.75916 1 18.3306V56.4579C1 66.0293 8.28174 73.7884 17.2642 73.7884H197.038C206.021 73.7884 213.302 66.0293 213.302 56.4579V18.3306C213.302 8.75916 206.021 1 197.038 1Z" stroke="black" stroke-width="2"/>
<path fill-rule="evenodd" clip-rule="evenodd" d="M39.7886 58.5816C39.1041 59.4081 37.8655 59.5772 37.8655 58.5041V58.5041V32.4433V32.4433C37.8655 31.4613 38.982 31.5584 39.6081 32.315L44.2492 37.9232C47.9171 42.3554 47.9157 48.7693 44.246 53.2L39.7886 58.5816ZM49.4509 48.5418C47.7433 50.5695 50.1861 53.4283 52.4554 52.0578V52.0578C53.6813 51.3175 53.9624 49.6605 53.0494 48.5572V48.5572C52.1173 47.4309 50.3927 47.4235 49.4509 48.5418V48.5418ZM53.1203 42.4856C54.0484 41.3651 53.7631 39.6815 52.5178 38.9293V38.9293C50.2265 37.5452 47.7478 40.4115 49.4481 42.4791V42.4791C50.3982 43.6346 52.1661 43.6377 53.1203 42.4856V42.4856ZM53.8855 43.2759C55.017 41.9322 56.958 41.6115 58.4617 42.5198L61.4388 44.3182C62.4969 44.9573 62.5066 45.9876 61.4388 46.6325L58.2757 48.5428C56.8019 49.4329 54.8983 49.1068 53.8048 47.777V47.777C52.7427 46.4855 52.7536 44.62 53.8307 43.3409L53.8855 43.2759Z" fill="black"/>
<path fill-rule="evenodd" clip-rule="evenodd" d="M120.654 41.5893C121.083 41.5893 121.24 42.1524 120.875 42.375V42.375C120.808 42.4154 120.731 42.4367 120.653 42.4367V42.4367C120.227 42.4367 120.006 42.98 120.254 43.3269C120.632 43.8577 120.964 44.5945 120.964 45.5991C120.964 47.3349 120.056 48.1531 119.141 48.9275C118.86 49.2324 118.531 49.5631 118.531 50.0743C118.531 50.5931 118.86 50.8744 119.096 51.0842L119.881 51.7378C120.836 52.6067 121.707 53.4034 121.707 55.0217C121.707 57.2263 119.727 59.4496 115.988 59.4496C112.837 59.4496 111.314 57.832 111.314 56.0976C111.314 55.2537 111.704 54.0584 112.99 53.2395C113.721 52.7577 114.592 52.5023 115.393 52.3583C116.15 52.2221 116.488 51.3356 116.488 50.566V50.566C116.488 50.4758 116.493 50.3939 116.503 50.3178C116.545 50.001 116.33 49.702 116.01 49.702V49.702C113.704 49.702 112.401 47.8475 112.401 46.02C112.401 44.9421 112.857 43.746 113.794 42.8792C115.033 41.779 116.511 41.5893 117.686 41.5893H120.654ZM117.382 52.8171C117.185 52.8171 116.01 52.863 115.1 53.1922C114.619 53.3818 113.228 53.9424 113.228 55.6073C113.228 57.2687 114.73 58.4668 117.053 58.4668C119.141 58.4668 120.249 57.3881 120.249 55.9358C120.249 54.8412 119.647 54.22 118.28 53.1497C118.021 52.9471 117.711 52.8171 117.382 52.8171V52.8171ZM165.126 41.5122C165.362 41.5122 165.574 41.6572 165.659 41.877L166.299 43.5323C167.333 46.2058 171.118 46.1998 172.143 43.5231L172.772 41.8828C172.857 41.6596 173.071 41.5122 173.31 41.5122V41.5122C173.717 41.5122 173.996 41.922 173.847 42.3006L168.874 54.9273C168.326 56.3095 167.463 56.9742 166.278 56.9742C166.072 56.9742 165.827 56.9512 165.605 56.9142C165.357 56.8729 165.211 56.632 165.254 56.3843V56.3843C165.311 56.0519 165.682 55.8484 166.017 55.888C166.105 55.8984 166.188 55.9038 166.259 55.9038C166.932 55.9038 167.4 55.6073 167.821 54.5598V54.5598C168.336 53.302 168.347 51.8943 167.852 50.6284L164.595 42.2905C164.449 41.9163 164.725 41.5122 165.126 41.5122V41.5122ZM145.863 41.2379C148.591 41.2379 150.427 43.4682 150.427 46.9987C150.427 50.5056 148.591 52.7824 145.863 52.7824V52.7824C144.593 52.7824 142.317 53.7322 142.317 55.0027V56.1534C142.317 56.4571 142.071 56.7033 141.768 56.7033V56.7033C141.464 56.7033 141.218 56.4571 141.218 56.1534V42.0621C141.218 41.7584 141.464 41.5122 141.768 41.5122H141.926C142.142 41.5122 142.317 41.6877 142.317 41.9042V41.9042C142.317 42.2956 142.899 42.4939 143.198 42.2416C143.914 41.6388 144.841 41.2379 145.863 41.2379ZM81.8797 36.6231C82.9795 36.6231 84.0373 36.7975 85.0011 37.0809C85.3971 37.2008 85.7385 37.3279 86.0347 37.4563C86.9752 37.864 87.0538 39.0988 86.3376 39.8321L86.0526 40.124C86.0159 40.1615 85.9694 40.188 85.9184 40.2003V40.2003C85.6794 40.258 85.488 40.0009 85.6116 39.7885L85.6682 39.6912C85.7413 39.5656 85.7236 39.4068 85.6225 39.3022C84.9012 38.5557 83.6505 37.4136 81.43 37.4136C78.2146 37.4136 75.789 40.0488 75.789 43.896C75.789 48.0281 78.5586 51.9149 83.0007 51.9149C83.5256 51.9149 83.948 51.8692 84.3053 51.7974C85.112 51.6352 85.588 50.8355 85.588 50.0126V48.4464C85.588 48.1097 85.3047 47.8424 84.9686 47.8619L84.2793 47.9018C83.8361 47.9275 83.6596 47.339 84.0437 47.1165V47.1165C84.1079 47.0794 84.1807 47.0598 84.2549 47.0598H87.6995C87.9849 47.0598 88.1305 47.4024 87.9325 47.6078V47.6078C87.7901 47.7384 87.7707 47.7829 87.7308 47.9579C87.7095 48.1579 87.6896 48.7942 87.6896 49.0178V49.0178C87.6896 50.5913 86.6163 51.9618 85.0887 52.3389L84.775 52.4164C83.5941 52.6171 82.5336 52.7935 81.4107 52.7935C75.789 52.7935 73.6469 48.3323 73.6469 44.8407C73.6469 40.5767 76.6819 36.6231 81.8797 36.6231ZM159.144 41.233C160.343 41.233 161.313 41.5442 162.044 42.1651C162.775 42.7798 163.142 43.6682 163.142 44.8295V50.2542C163.142 50.6438 163.159 51.0203 163.204 51.387C163.218 51.4971 163.234 51.6071 163.253 51.7167C163.319 52.1024 163.036 52.4761 162.645 52.4761V52.4761C162.361 52.4761 162.116 52.2749 162.068 51.9953C162.036 51.8069 162.009 51.6339 161.986 51.478V51.478C161.957 51.2306 161.575 51.1151 161.402 51.2936C161.102 51.6009 160.747 51.8719 160.34 52.1052C159.657 52.499 159.009 52.6921 158.119 52.6921C157.048 52.6921 156.216 52.408 155.623 51.8315C155.031 51.2557 154.733 50.4757 154.733 49.4887C154.733 48.5031 155.164 47.703 156.024 47.0911C156.883 46.4764 157.994 46.1708 159.369 46.1708H160.567C161.322 46.1708 161.934 45.5591 161.934 44.8045V44.8045C161.934 44.0176 161.685 43.3987 161.188 42.95C160.69 42.5006 159.99 42.2735 159.083 42.2735C158.254 42.2735 157.581 42.4812 157.069 42.8854C156.754 43.1413 156.536 43.4352 156.416 43.7685C156.29 44.1163 156.006 44.4253 155.636 44.4253H155.231C155.2 44.4253 155.172 44.4064 155.161 44.3777V44.3777C155.158 44.3701 155.156 44.3621 155.156 44.3539C155.12 43.5283 155.472 42.8038 156.218 42.1777C156.964 41.5491 157.941 41.233 159.144 41.233ZM132.055 41.2865C132.837 41.2865 133.64 41.4977 134.293 41.9429V41.9429C135.614 42.8847 134.703 44.7475 133.216 45.3954L130.906 46.4014C130.773 46.4593 130.632 46.4951 130.487 46.5072V46.5072C129.707 46.5726 129.14 47.3043 129.417 48.0368C130.214 50.1474 131.794 51.3419 133.509 51.3419C134.477 51.3419 135.211 51.0224 135.878 50.6739C135.966 50.6278 136.119 50.5604 136.051 50.6334V50.6334L135.596 51.0962C135.208 51.4912 134.79 51.8716 134.293 52.1163V52.1163C133.571 52.4699 132.837 52.5588 132.184 52.5588C131.49 52.5588 130.401 52.5101 129.29 51.644C127.747 50.4723 127.073 48.458 127.073 46.7028C127.073 43.0688 129.816 41.2865 132.055 41.2865ZM106.27 41.2865C109.466 41.2865 111.468 43.9842 111.468 46.8167C111.468 49.5832 109.489 52.5101 105.944 52.5101C102.488 52.5101 100.639 49.6089 100.639 46.982C100.639 43.9127 102.963 41.2865 106.27 41.2865ZM94.7016 41.2865C97.8958 41.2865 99.8955 43.9842 99.8955 46.8167C99.8955 49.5832 97.9196 52.5101 94.3737 52.5101C90.9173 52.5101 89.0715 49.6089 89.0715 46.982C89.0715 43.9127 91.3966 41.2865 94.7016 41.2865ZM152.479 37.3177C152.782 37.3177 153.028 37.5638 153.028 37.8673V51.9592C153.028 52.2627 152.782 52.5088 152.479 52.5088V52.5088C152.175 52.5088 151.929 52.2627 151.929 51.9592V37.8673C151.929 37.5638 152.175 37.3177 152.479 37.3177V37.3177ZM124.457 35.6611C124.997 35.6611 125.426 36.6218 125.37 37.1587V37.1587L125.365 50.4521C125.365 51.3627 125.515 51.5044 126.23 51.5759C126.314 51.5866 126.398 51.5959 126.482 51.6045C126.774 51.6343 126.861 51.999 126.614 52.1575V52.1575C126.563 52.19 126.505 52.2073 126.444 52.2073H124.112C123.524 52.2073 123.294 51.555 123.294 50.9661V50.9661V50.4431L123.286 36.8391C123.286 36.6557 123.137 36.5071 122.954 36.5071V36.5071C122.606 36.5071 122.492 36.0406 122.801 35.8803L123.131 35.7088C123.191 35.6775 123.258 35.6611 123.326 35.6611H124.457ZM94.1366 42.0137C93.417 42.0137 92.7025 42.3159 92.1806 42.809C91.3302 43.6293 91.1795 44.6601 91.1795 45.6714C91.1795 47.9871 92.2457 51.8065 94.8762 51.8065C95.7247 51.8065 96.5912 51.3627 97.093 50.614C97.6149 49.8638 97.745 48.9275 97.745 48.0149C97.745 45.9506 96.8302 42.0137 94.1366 42.0137ZM105.707 42.0137C104.99 42.0137 104.268 42.3159 103.747 42.809C102.898 43.6293 102.747 44.6601 102.747 45.6714C102.747 47.9871 103.809 51.8065 106.444 51.8065C107.294 51.8065 108.162 51.3627 108.662 50.614C109.188 49.8638 109.316 48.9275 109.316 48.0149C109.316 45.9506 108.403 42.0137 105.707 42.0137ZM145.678 42.3082C145.091 42.3082 144.515 42.5142 143.999 42.8299C142.639 43.663 142.317 45.3933 142.317 46.9886V46.9886C142.317 48.5814 142.635 50.3035 143.979 51.1595C144.499 51.4915 145.083 51.7107 145.678 51.7107C147.959 51.7107 149.246 49.6638 149.246 46.9987C149.246 44.3378 147.959 42.3082 145.678 42.3082ZM161.934 48.9184C161.934 47.9207 161.125 47.1119 160.127 47.1119H159.357C158.372 47.1119 157.557 47.3467 156.916 47.8204C156.274 48.2927 155.948 48.8643 155.948 49.529C155.948 50.1562 156.155 50.6577 156.564 51.0376C156.975 51.4217 157.537 51.6121 158.254 51.6121C159.188 51.6121 159.859 51.387 160.545 50.9418C161.133 50.5606 161.558 50.0793 161.82 49.5064C161.904 49.3228 161.934 49.1203 161.934 48.9184V48.9184ZM116.314 42.3645C115.751 42.3645 115.14 42.6694 114.793 43.141C114.425 43.6293 114.315 44.2628 114.315 44.8719C114.315 46.4416 115.164 49.0449 117.032 49.0449C117.577 49.0449 118.163 48.7594 118.507 48.3885C119.01 47.8475 119.054 47.1001 119.054 46.6757C119.054 44.99 118.121 42.3645 116.314 42.3645ZM131.443 42.0596C130.575 42.0596 128.944 42.7889 128.944 45.3213C128.944 45.5848 128.964 45.8597 128.983 46.1384V46.1384C128.996 46.3401 129.208 46.4657 129.391 46.38L132.967 44.7066L133.098 44.653C133.428 44.5106 133.598 44.3675 133.598 44.0773C133.598 43.141 132.616 42.0596 131.443 42.0596Z" fill="black"/>
</svg>
